<svg version="1.2" baseProfile="tiny-ps" xmlns="http://www.w3.org/2000/svg" viewBox="0 0 250 250" width="250" height="250">
	<title>Group 2</title>
	<style>
		tspan { white-space:pre }
		.shp0 { fill: #f1f1f3 } 
		.shp1 { opacity: 0.996;fill: #0f1113 } 
		.shp2 { opacity: 0.992;fill: #0f1113 } 
		.shp3 { fill: #0f1113 } 
		.shp4 { opacity: 0.996;fill: #939597 } 
		.shp5 { opacity: 0.98;fill: #939597 } 
	</style>
	<g id="Group 2">
		<g id="Folder 1 copy 2">
			<path id="Ellipse 3 copy" class="shp0" d="M125 250.01C55.87 250.01 -0.01 194.13 -0.01 125C-0.01 55.87 55.87 -0.01 125 -0.01C194.13 -0.01 250.01 55.87 250.01 125C250.01 194.13 194.13 250.01 125 250.01Z" />
			<g id="top TRY">
				<path id="Top" class="shp1" d="M94.84 26.22C94.39 26.36 93.32 26.79 92.48 27.19C91.64 27.58 90.42 28.27 89.75 28.7C89.09 29.13 88.15 29.83 87.67 30.24C87.18 30.66 86.04 31.77 85.13 32.71C84.22 33.64 83.09 34.87 82.61 35.42C82.13 35.98 80.48 38.13 78.93 40.12C77.13 42.44 76.1 43.75 76.1 43.92C76.1 44.07 76.44 44.46 76.9 44.83C77.34 45.19 78.16 45.77 78.73 46.13C79.29 46.48 80.28 46.99 80.91 47.25C81.71 47.57 82.17 47.69 82.36 47.61C82.57 47.52 82.83 47.07 83.29 45.94C83.65 45.09 84.42 43.56 85.02 42.54C85.61 41.52 86.64 39.95 87.3 39.06C87.96 38.17 89.12 36.77 89.89 35.95C90.65 35.14 91.79 34.04 92.42 33.51C93.04 32.98 93.9 32.35 94.32 32.13C94.74 31.9 95.72 31.45 96.49 31.15C97.52 30.74 98.28 30.56 99.29 30.46C100.05 30.39 101.21 30.41 101.88 30.51C102.54 30.6 103.64 30.84 104.32 31.04C105 31.24 105.98 31.61 106.49 31.87C106.99 32.12 108.06 32.75 108.87 33.29C109.67 33.82 110.63 34.53 111 34.85C111.36 35.17 112.15 35.9 112.74 36.49C113.33 37.08 114.33 38.15 114.96 38.87C115.59 39.59 116.51 40.77 117 41.48C117.49 42.19 118.23 43.31 118.65 43.96C119.06 44.62 119.74 45.78 120.15 46.54C120.56 47.3 121.17 48.56 121.52 49.34C121.86 50.12 122.38 51.39 122.67 52.17C122.96 52.96 123.35 54.15 123.54 54.84C123.73 55.53 123.98 56.58 124.08 57.17C124.19 57.76 124.34 58.94 124.41 59.77C124.49 60.61 124.55 61.66 124.55 62.11C124.55 62.56 124.59 63.03 124.65 63.14C124.7 63.26 124.93 63.47 125.17 63.6C125.28 63.67 125.4 63.72 125.5 63.75C125.54 63.77 125.58 63.78 125.62 63.78C125.63 63.78 125.63 63.78 125.64 63.78C125.65 63.78 125.65 63.78 125.66 63.78C125.67 63.78 125.68 63.78 125.69 63.77C125.74 63.73 125.78 62.37 125.78 60.74C125.78 58.25 125.74 57.52 125.48 56.01C125.31 55.02 125.03 53.63 124.85 52.9C124.68 52.19 124.38 51.09 124.19 50.45C124 49.83 123.43 48.37 122.93 47.19C122.42 46.01 121.55 44.17 120.99 43.11C120.43 42.06 119.6 40.6 119.15 39.87C118.7 39.15 117.79 37.79 117.12 36.86C116.45 35.92 115.32 34.5 114.62 33.7C113.91 32.89 112.64 31.61 111.8 30.85C110.95 30.08 109.42 28.93 108.41 28.31C107.39 27.67 105.88 26.92 105.05 26.62C104.22 26.31 102.9 25.97 102.12 25.85C101.33 25.73 100.08 25.62 99.34 25.62C98.59 25.61 97.46 25.68 96.83 25.78C96.19 25.88 95.3 26.08 94.84 26.22L94.84 26.22Z" />
				<path id="Path 0" class="shp2" d="M97.75 29.05C97.57 29.08 96.98 29.16 96.44 29.24C95.91 29.32 95 29.51 94.42 29.68C93.85 29.84 92.7 30.24 91.88 30.57C91.05 30.89 89.88 31.44 89.27 31.78C88.66 32.11 87.49 32.94 86.66 33.6C85.84 34.26 84.57 35.36 83.84 36.03C83.11 36.7 81.26 38.6 79.73 40.25C78.2 41.9 76.73 43.51 76.46 43.83C76.19 44.15 75.96 44.5 75.96 44.61C75.96 44.72 76.36 45.19 76.85 45.66C77.33 46.12 78.23 46.84 78.84 47.24C79.45 47.64 80.3 48.15 80.73 48.37C81.16 48.58 81.75 48.83 82.03 48.92C82.43 49.04 82.63 49.04 82.85 48.93C83.02 48.85 83.36 48.35 83.65 47.78C83.93 47.22 84.46 46.24 84.84 45.59C85.22 44.95 85.8 44.04 86.12 43.57C86.45 43.1 87.01 42.34 87.37 41.87C87.73 41.41 88.46 40.53 89 39.93C89.55 39.32 90.49 38.4 91.1 37.88C91.71 37.37 92.62 36.64 93.12 36.27C93.62 35.9 94.35 35.41 94.75 35.18C95.14 34.95 95.93 34.61 96.51 34.42C97.08 34.23 97.87 33.98 98.27 33.86C98.66 33.75 99.51 33.6 100.16 33.55C100.81 33.49 101.79 33.49 102.34 33.55C102.9 33.61 103.99 33.81 104.76 33.99C105.53 34.17 106.48 34.44 106.88 34.59C107.27 34.74 108 35.1 108.5 35.39C109.01 35.68 110 36.32 110.72 36.8C111.49 37.33 112.57 38.24 113.36 39.03C114.09 39.77 115.14 40.93 115.68 41.61C116.23 42.29 117.12 43.56 117.67 44.42C118.22 45.28 119.03 46.69 119.48 47.55C119.92 48.41 120.67 50.08 121.13 51.26C121.59 52.45 122.12 53.88 122.3 54.46C122.48 55.03 122.81 56.29 123.02 57.26C123.24 58.23 123.54 60.02 123.69 61.24C123.84 62.46 123.96 63.73 123.96 64.07C123.96 64.58 124.02 64.75 124.32 65.02C124.51 65.21 124.81 65.35 124.97 65.35C125.26 65.35 125.26 65.35 125.25 63.03C125.25 61.76 125.2 60.28 125.14 59.74C125.07 59.2 124.9 57.97 124.75 57C124.6 56.03 124.27 54.36 124.02 53.28C123.77 52.21 123.3 50.62 122.96 49.76C122.63 48.9 122.01 47.38 121.58 46.37C121.16 45.37 120.45 43.87 120.01 43.05C119.58 42.22 118.74 40.81 118.16 39.92C117.58 39.02 116.75 37.88 116.34 37.38C115.92 36.87 115.19 36.06 114.71 35.57C114.24 35.08 113.41 34.31 112.87 33.86C112.33 33.41 111.34 32.69 110.66 32.26C109.97 31.83 109.01 31.27 108.5 31.02C108 30.77 107.03 30.38 106.35 30.17C105.67 29.95 104.56 29.65 103.88 29.51C103.19 29.36 101.99 29.18 101.2 29.1C100.41 29.03 99.39 28.97 98.92 28.98C98.45 28.99 97.93 29.02 97.75 29.05Z" />
				<path id="Ellipse 6 copy" class="shp3" d="M76.56 68.74C69.67 68.74 64.11 63.17 64.11 56.28C64.11 49.4 69.67 43.83 76.56 43.83C83.44 43.83 89.01 49.4 89.01 56.28C89.01 63.17 83.44 68.74 76.56 68.74Z" />
			</g>
			<g id="Group 1">
				<g id="whole">
					<g id="Folder 2 copy 2">
						<g id="Path 0 copy">
							<path id="Path 0" class="shp3" d="M123.89 56.44C123.75 56.46 122.57 56.49 121.28 56.52C119.62 56.56 118.77 56.63 118.35 56.78C118.03 56.89 116.79 57.16 115.61 57.39C114.43 57.61 112.2 58.14 110.66 58.55C109.11 58.97 107.24 59.55 106.48 59.84C105.73 60.13 104.09 60.82 102.83 61.37C101.58 61.92 99.93 62.63 99.18 62.95C98.43 63.27 97.14 63.89 96.31 64.33C95.49 64.76 94.26 65.44 93.57 65.84C92.89 66.24 91.75 66.95 91.03 67.41C90.31 67.87 89.23 68.63 88.62 69.1C88.01 69.57 86.95 70.43 86.27 71C85.59 71.58 84.12 72.88 83.01 73.9C81.9 74.91 79.38 77.38 77.41 79.38C75.43 81.38 72.85 84.07 71.67 85.36C70.48 86.65 69.01 88.26 68.4 88.95C67.79 89.63 67.01 90.57 66.65 91.03C66.3 91.5 65.42 92.55 64.7 93.36C63.98 94.17 62.81 95.49 62.1 96.29C61.39 97.09 60.57 98.07 60.26 98.47C59.96 98.86 59.02 100.21 58.18 101.46C57.34 102.72 56.18 104.52 55.62 105.47C55.05 106.42 54.24 107.89 53.82 108.73C53.4 109.58 52.85 110.79 52.59 111.44C52.34 112.08 51.97 112.96 51.78 113.4C51.59 113.83 51.41 114.38 51.38 114.63C51.35 114.88 50.99 116.06 50.59 117.24C50.18 118.42 49.8 119.45 49.75 119.52C49.68 119.61 48.24 119.02 45.89 117.97C43.82 117.05 41.52 116.01 40.76 115.67C40.01 115.34 37.34 114.15 34.83 113.03C32.32 111.92 29.18 110.54 27.86 109.96C26.53 109.38 25.18 108.82 24.86 108.7C24.53 108.59 24.06 108.5 23.81 108.51L23.36 108.51C24.3 109.06 25.21 109.67 25.99 110.21C26.76 110.75 28.72 112.1 30.33 113.22C31.95 114.33 33.68 115.48 34.18 115.78C34.68 116.07 35.41 116.52 35.81 116.76C36.2 117 36.94 117.44 37.44 117.73C37.94 118.01 40 119.1 42 120.13C44.01 121.17 46.36 122.35 47.22 122.76C48.74 123.49 48.78 123.52 48.7 123.86C48.65 124.06 48.52 124.89 48.41 125.72C48.3 126.54 48.21 127.3 48.21 127.41C48.2 127.52 48.17 127.87 48.13 128.19C48.09 128.52 48.04 129.1 48.01 129.5C47.98 129.89 47.92 130.63 47.88 131.13C47.85 131.63 47.78 132.45 47.74 132.95C47.7 133.46 47.64 133.98 47.61 134.13C47.58 134.27 47.45 134.39 47.32 134.4C47.19 134.41 46.44 134.54 45.65 134.7C44.87 134.85 43.34 135.12 42.26 135.3C41.19 135.48 40.07 135.65 39.79 135.69C39.5 135.73 38.77 135.84 38.16 135.95C37.55 136.06 36.78 136.18 36.46 136.21C36.14 136.25 34.96 136.42 33.85 136.6C32.74 136.77 31.48 136.95 31.05 136.99C30.62 137.03 30 137.1 29.68 137.13C29.36 137.16 28.3 137.25 27.33 137.32C26.37 137.39 25.1 137.45 24.53 137.46C23.96 137.46 23.33 137.53 23.14 137.62C22.95 137.71 22.64 137.97 22.46 138.2L22.12 138.63C22.81 139.16 22.92 139.17 24.07 139.06C24.75 139 26.1 138.95 27.07 138.95C28.04 138.95 29.77 139 30.92 139.07C32.07 139.13 33.3 139.2 33.66 139.22C34.02 139.24 34.84 139.29 35.48 139.33C36.13 139.37 38.24 139.44 40.18 139.47C42.11 139.52 44.52 139.57 45.52 139.6C46.79 139.64 47.39 139.71 47.49 139.83C47.58 139.92 47.71 140.49 47.79 141.1C47.87 141.71 47.94 142.48 47.94 142.8C47.94 143.12 48.03 143.77 48.15 144.23C48.27 144.7 48.35 145.18 48.34 145.31C48.33 145.43 48.39 145.57 48.46 145.6C48.53 145.64 48.56 145.73 48.52 145.8C48.49 145.87 48.5 146 48.55 146.09C48.6 146.18 48.65 146.37 48.67 146.51C48.69 146.66 48.85 147.51 49.04 148.41C49.36 149.95 49.37 150.04 49.15 150.19C49.02 150.28 48.84 150.41 48.75 150.49C48.66 150.56 48.56 150.58 48.52 150.52C48.48 150.47 48.45 150.5 48.45 150.59C48.46 150.68 48.41 150.74 48.36 150.73C48.31 150.72 48.04 150.82 47.77 150.96C47.5 151.1 47.28 151.25 47.28 151.31C47.28 151.36 47.23 151.37 47.15 151.34C47.08 151.3 47.02 151.32 47.02 151.37C47.02 151.43 46.95 151.48 46.86 151.49C46.77 151.5 46.14 151.82 45.46 152.19C44.78 152.58 43.46 153.26 42.52 153.72C41.59 154.18 40.8 154.6 40.76 154.64C40.73 154.69 40.61 154.75 40.5 154.77C40.4 154.8 40.16 154.92 39.98 155.05C39.8 155.18 39.01 155.62 38.22 156.03C37.43 156.44 36.38 157 35.88 157.27C35.37 157.55 34.89 157.83 34.8 157.91C34.71 157.99 34.59 158.06 34.54 158.06C34.48 158.07 34.15 158.25 33.79 158.46C33.43 158.67 32.34 159.35 31.38 159.97C30.41 160.58 28.56 161.74 27.27 162.55C25.98 163.35 24.66 164.19 24.34 164.42L23.75 164.84C24.45 164.83 24.98 164.75 25.38 164.65C25.77 164.56 27.03 164.09 28.18 163.61C29.33 163.12 31.35 162.24 32.68 161.64C34.01 161.04 37.44 159.5 40.31 158.21C43.18 156.92 46.57 155.39 47.84 154.81C49.11 154.23 50.17 153.77 50.2 153.78C50.22 153.8 50.78 155.49 51.43 157.53C52.08 159.58 52.8 161.95 53.02 162.81C53.24 163.67 53.8 165.46 54.26 166.79C54.71 168.12 55.54 170.32 56.09 171.68C56.64 173.04 57.26 174.57 57.46 175.07C57.65 175.57 58.21 176.8 58.69 177.81C59.17 178.81 59.85 180.22 60.2 180.94C60.55 181.66 61.28 182.92 61.83 183.74C62.38 184.57 63.49 186.12 64.29 187.2C65.1 188.27 66.25 189.74 66.85 190.46C67.45 191.17 68.76 192.6 69.77 193.63C70.78 194.66 72.31 196.13 73.17 196.9C74.03 197.66 75.2 198.67 75.77 199.13C76.35 199.6 77.68 200.55 78.74 201.25C79.89 202 80.8 202.52 80.99 202.52C81.17 202.52 83.24 202.87 85.59 203.3C87.94 203.72 90.83 204.22 92.01 204.4C93.19 204.57 94.81 204.81 95.6 204.92C96.38 205.03 98.12 205.24 99.44 205.38C100.77 205.53 103.38 205.76 105.24 205.9C107.11 206.05 109.63 206.23 110.85 206.3C112.07 206.37 115.59 206.49 118.68 206.57C121.76 206.65 126.28 206.68 128.72 206.63C131.15 206.59 134.59 206.49 136.34 206.42C138.1 206.35 141.45 206.14 143.78 205.96C146.11 205.78 149.1 205.52 150.43 205.38C151.75 205.24 153.48 205.03 154.27 204.92C155.06 204.81 156.85 204.55 158.25 204.33C159.65 204.12 161.38 203.84 162.1 203.71C162.81 203.58 164.63 203.25 166.14 202.98C167.65 202.72 169 202.48 169.14 202.45C169.28 202.43 170.28 201.82 171.36 201.11C172.43 200.4 174.07 199.17 175 198.39C175.93 197.61 177.69 196.01 178.9 194.82C180.11 193.64 181.76 191.91 182.55 190.98C183.35 190.05 184.73 188.31 185.62 187.13C186.52 185.95 187.67 184.33 188.19 183.55C188.74 182.71 189.74 180.83 190.59 179.05C191.39 177.36 192.21 175.57 192.41 175.07C192.61 174.57 193.05 173.48 193.39 172.66C193.72 171.83 194.17 170.75 194.38 170.25C194.59 169.74 195.06 168.48 195.42 167.44C195.79 166.4 196.35 164.58 196.67 163.4C196.99 162.22 197.79 159.58 198.44 157.53C199.1 155.49 199.64 153.8 199.64 153.78C199.65 153.76 200 153.88 200.43 154.06C200.86 154.23 202.12 154.79 203.24 155.29C204.35 155.79 206.64 156.83 208.32 157.6C210.01 158.37 213.26 159.83 215.56 160.86C217.85 161.88 220.58 163.07 221.62 163.5C222.66 163.93 223.81 164.38 224.17 164.5C224.52 164.63 225.14 164.76 225.53 164.79L226.25 164.86C223.07 162.77 221.43 161.72 220.55 161.18C219.68 160.65 218.49 159.89 217.91 159.5C217.34 159.12 216.39 158.53 215.82 158.21C215.25 157.88 214.28 157.36 213.67 157.04C213.06 156.73 211.86 156.08 211 155.6C210.13 155.12 209.39 154.75 209.33 154.76C209.28 154.78 209.24 154.75 209.24 154.7C209.24 154.64 208.58 154.28 207.77 153.89C206.96 153.5 206.27 153.15 206.24 153.11C206.2 153.07 205.54 152.73 204.77 152.35C204 151.97 203.12 151.51 202.81 151.31C202.51 151.12 202.21 150.97 202.16 150.99C202.11 151 202.06 150.95 202.06 150.88C202.06 150.81 202 150.78 201.93 150.82C201.86 150.85 201.79 150.84 201.77 150.78C201.75 150.72 201.46 150.52 201.12 150.32C200.67 150.07 200.51 149.91 200.56 149.74C200.59 149.62 200.71 148.96 200.82 148.27C200.94 147.59 201.12 146.77 201.22 146.45C201.33 146.13 201.39 145.83 201.35 145.8C201.31 145.76 201.34 145.67 201.41 145.6C201.47 145.53 201.62 145 201.72 144.43C201.83 143.85 201.96 142.89 202.02 142.28C202.07 141.67 202.12 140.93 202.12 140.65C202.13 140.23 202.19 140.09 202.45 139.94C202.63 139.83 202.87 139.74 202.98 139.72C203.08 139.71 203.47 139.66 203.82 139.62C204.18 139.59 205.62 139.52 207.02 139.48C208.42 139.44 210.97 139.37 212.69 139.33C214.41 139.29 216.11 139.23 216.47 139.2C216.83 139.17 219.38 139.13 222.14 139.11C226.59 139.07 227.21 139.04 227.52 138.85L227.88 138.63C227.35 137.97 226.98 137.7 226.72 137.61C226.45 137.51 225.11 137.39 223.51 137.32C222.01 137.25 220.01 137.11 219.08 137C218.15 136.89 217.21 136.77 216.99 136.74C216.78 136.7 215.87 136.56 214.97 136.42C214.08 136.29 213.25 136.17 213.15 136.16C213.04 136.15 212.8 136.12 212.63 136.1C212.45 136.08 212.18 136.02 212.04 135.98C211.89 135.93 211.45 135.85 211.06 135.81C210.67 135.77 210.23 135.72 210.08 135.71C209.94 135.69 209.76 135.64 209.69 135.6C209.62 135.55 209.22 135.48 208.81 135.44C208.4 135.4 208 135.34 207.93 135.3C207.86 135.26 207.49 135.2 207.12 135.16C206.74 135.12 206.28 135.07 206.11 135.05C205.93 135.02 205.51 134.97 205.19 134.92C204.87 134.87 204.25 134.74 203.82 134.63C203.39 134.52 202.87 134.37 202.65 134.31C202.26 134.2 202.26 134.18 202.16 133.05C202.11 132.42 202.04 131.41 202 130.8C201.96 130.19 201.87 129.22 201.79 128.65C201.72 128.08 201.61 127.08 201.54 126.43C201.48 125.79 201.37 124.88 201.29 124.41C201.22 123.95 201.17 123.56 201.19 123.55C201.2 123.54 201.63 123.32 202.13 123.07C202.63 122.82 204.71 121.77 206.76 120.74C208.8 119.7 211.6 118.2 212.98 117.4C214.36 116.59 215.52 115.94 215.56 115.94C215.59 115.94 216.72 115.2 218.07 114.3C219.41 113.4 221.69 111.84 223.12 110.84C224.56 109.83 225.93 108.92 226.19 108.8L226.64 108.59C226.04 108.51 225.42 108.64 224.88 108.84C224.34 109.03 222.91 109.63 221.69 110.16C220.47 110.7 217.42 112.05 214.91 113.16C212.4 114.27 208.91 115.82 207.15 116.59C205.39 117.37 203.1 118.39 202.06 118.86C201.02 119.32 200.16 119.69 200.15 119.68C200.13 119.66 199.77 118.61 199.33 117.34C198.9 116.07 198.54 114.86 198.54 114.67C198.54 114.47 198.39 113.98 198.21 113.59C198.02 113.2 197.61 112.23 197.28 111.44C196.96 110.65 196.37 109.36 195.98 108.57C195.58 107.78 194.87 106.49 194.4 105.7C193.93 104.91 193 103.45 192.35 102.44C191.7 101.44 190.76 100.06 190.27 99.38C189.78 98.7 188.95 97.64 188.43 97.03C187.91 96.42 186.92 95.31 186.22 94.55C185.53 93.8 184.3 92.36 183.49 91.36C182.68 90.35 181.06 88.48 179.88 87.19C178.71 85.9 176.68 83.72 175.38 82.36C174.08 81 171.62 78.5 169.9 76.82C168.19 75.13 166 73.07 165.03 72.23C164.06 71.39 162.71 70.26 162.03 69.71C161.35 69.17 160.06 68.23 159.16 67.63C158.27 67.04 156.74 66.09 155.77 65.54C154.8 64.99 153.54 64.3 152.97 64.01C152.4 63.72 151.25 63.2 150.43 62.84C149.6 62.48 148.4 61.97 147.75 61.69C147.11 61.42 146.08 60.97 145.47 60.68C144.86 60.4 144.04 60.06 143.65 59.93C143.25 59.81 142.66 59.59 142.34 59.45C142.02 59.31 140.52 58.88 139.02 58.49C137.51 58.09 135.72 57.66 135.04 57.53C134.36 57.39 133.42 57.21 132.95 57.13C132.49 57.05 131.72 56.87 131.26 56.74C130.56 56.54 129.86 56.49 127.28 56.45C125.56 56.43 124.04 56.42 123.89 56.44Z" />
							<path id="Path 1" class="shp4" d="M23.94 108.96C23.94 109 24.06 109.48 24.2 110.04C24.34 110.59 24.51 111.63 24.59 112.35C24.66 113.07 24.79 115.53 24.87 117.83C24.95 120.12 24.98 123.47 24.93 125.26C24.88 127.05 24.79 129.22 24.71 130.09C24.64 130.95 24.46 132.27 24.31 133.02C24.17 133.77 23.83 135.03 23.56 135.82C23.29 136.61 23.01 137.37 22.95 137.5C22.85 137.72 22.87 137.73 23.19 137.6C23.39 137.52 24.01 137.45 24.56 137.45C25.12 137.45 26.37 137.39 27.33 137.32C28.3 137.25 29.36 137.16 29.68 137.13C30 137.1 30.62 137.03 31.05 136.99C31.48 136.95 32.74 136.77 33.85 136.6C34.96 136.42 36.14 136.25 36.46 136.21C36.78 136.18 37.55 136.06 38.16 135.95C38.77 135.84 39.5 135.73 39.79 135.69C40.07 135.65 41.19 135.48 42.26 135.3C43.34 135.12 44.87 134.85 45.65 134.7C46.44 134.54 47.19 134.41 47.32 134.4C47.45 134.39 47.58 134.27 47.61 134.13C47.64 133.98 47.7 133.46 47.74 132.95C47.78 132.45 47.85 131.63 47.88 131.13C47.92 130.63 47.98 129.89 48.01 129.5C48.04 129.1 48.09 128.52 48.13 128.19C48.17 127.87 48.2 127.52 48.21 127.41C48.21 127.3 48.3 126.54 48.41 125.72C48.52 124.89 48.65 124.06 48.7 123.86C48.78 123.52 48.74 123.49 47.22 122.76C46.36 122.35 44.01 121.17 42 120.13C40 119.1 37.94 118.01 37.44 117.73C36.94 117.44 36.2 117 35.81 116.76C35.41 116.52 34.68 116.07 34.18 115.78C33.68 115.48 31.95 114.33 30.33 113.22C28.72 112.1 26.84 110.81 26.16 110.35C25.48 109.88 24.76 109.37 24.56 109.2C24.37 109.03 24.15 108.9 24.07 108.9C24 108.9 23.94 108.93 23.94 108.96ZM223.19 110.79C221.72 111.82 219.41 113.4 218.07 114.3C216.72 115.2 215.59 115.94 215.56 115.94C215.52 115.94 214.36 116.59 212.98 117.4C211.6 118.2 208.8 119.7 206.76 120.74C204.71 121.77 202.63 122.82 202.13 123.07C201.63 123.32 201.2 123.54 201.19 123.55C201.17 123.56 201.22 123.95 201.29 124.41C201.37 124.88 201.48 125.79 201.54 126.43C201.61 127.08 201.72 128.08 201.79 128.65C201.87 129.22 201.96 130.19 202 130.8C202.04 131.41 202.11 132.42 202.16 133.05C202.26 134.18 202.26 134.2 202.65 134.31C202.87 134.37 203.39 134.52 203.82 134.63C204.25 134.74 204.87 134.87 205.19 134.92C205.51 134.97 205.93 135.02 206.11 135.05C206.28 135.07 206.74 135.12 207.12 135.16C207.49 135.2 207.86 135.26 207.93 135.3C208 135.34 208.4 135.4 208.81 135.44C209.22 135.48 209.62 135.55 209.69 135.6C209.76 135.64 209.94 135.69 210.08 135.71C210.23 135.72 210.67 135.77 211.06 135.81C211.45 135.85 211.89 135.93 212.04 135.98C212.18 136.02 212.45 136.08 212.63 136.1C212.8 136.12 213.04 136.15 213.15 136.16C213.25 136.17 214.08 136.29 214.97 136.42C215.87 136.56 216.78 136.7 216.99 136.74C217.21 136.77 218.15 136.89 219.08 137C220.01 137.11 222.01 137.25 223.51 137.32C225.02 137.38 226.43 137.5 226.64 137.58C226.86 137.65 227.04 137.7 227.05 137.68C227.07 137.66 226.82 136.89 226.51 135.95C226.2 135.02 225.86 133.82 225.75 133.28C225.64 132.74 225.48 131.8 225.41 131.19C225.33 130.58 225.2 128.44 225.13 126.43C225.02 123.79 225.03 121.58 225.13 118.42C225.21 116.01 225.34 113.4 225.41 112.61C225.49 111.82 225.63 110.77 225.74 110.27C225.85 109.76 225.95 109.25 225.98 109.12C226 109 225.98 108.9 225.94 108.9C225.9 108.91 224.66 109.75 223.19 110.79ZM24.26 139.06L23.09 139.21C23.55 140.02 23.82 140.7 24 141.23C24.17 141.77 24.41 142.86 24.52 143.65C24.64 144.43 24.8 146.31 24.87 147.82C24.95 149.32 24.97 151.7 24.93 153.1C24.88 154.5 24.79 156.64 24.72 157.86C24.65 159.08 24.5 160.96 24.39 162.03C24.29 163.11 24.17 164.09 24.14 164.22C24.1 164.34 24.14 164.44 24.24 164.44C24.33 164.44 24.49 164.36 24.6 164.26C24.7 164.16 25.88 163.4 27.2 162.58C28.53 161.76 30.41 160.58 31.38 159.97C32.34 159.35 33.43 158.67 33.79 158.46C34.15 158.25 34.5 158.06 34.57 158.04C34.64 158.02 34.76 157.95 34.83 157.89C34.9 157.82 35.37 157.55 35.88 157.27C36.38 157 37.43 156.44 38.22 156.03C39.01 155.62 39.8 155.18 39.98 155.05C40.16 154.92 40.4 154.8 40.5 154.77C40.61 154.75 40.73 154.69 40.76 154.64C40.8 154.6 41.59 154.18 42.52 153.72C43.46 153.26 44.78 152.58 45.46 152.19C46.14 151.82 46.77 151.5 46.86 151.49C46.95 151.48 47.02 151.43 47.02 151.37C47.02 151.32 47.08 151.3 47.15 151.34C47.23 151.37 47.28 151.36 47.28 151.31C47.28 151.25 47.5 151.1 47.77 150.96C48.04 150.82 48.31 150.72 48.36 150.73C48.41 150.74 48.46 150.68 48.45 150.59C48.45 150.5 48.48 150.47 48.52 150.52C48.56 150.58 48.66 150.56 48.75 150.49C48.84 150.41 49.02 150.28 49.15 150.19C49.37 150.04 49.36 149.95 49.04 148.41C48.85 147.51 48.69 146.66 48.67 146.51C48.65 146.37 48.6 146.18 48.55 146.09C48.5 146 48.49 145.87 48.52 145.8C48.56 145.73 48.53 145.64 48.46 145.6C48.39 145.57 48.33 145.43 48.34 145.31C48.35 145.18 48.27 144.7 48.15 144.23C48.03 143.77 47.94 143.12 47.94 142.8C47.94 142.48 47.87 141.71 47.79 141.1C47.71 140.49 47.58 139.92 47.49 139.83C47.39 139.71 46.79 139.64 45.52 139.6C44.52 139.57 42.11 139.52 40.18 139.47C38.24 139.44 36.25 139.38 35.74 139.35C35.24 139.32 34.1 139.25 33.2 139.2C32.3 139.16 31.42 139.1 31.25 139.08C31.07 139.05 29.69 139.01 28.18 138.97C26.44 138.93 25.02 138.96 24.26 139.06ZM218.6 139.08C218.58 139.1 217.82 139.16 216.93 139.2C216.03 139.24 214.07 139.3 212.56 139.34C211.05 139.38 208.59 139.44 207.08 139.49C205.58 139.53 204.08 139.59 203.76 139.63C203.44 139.67 203.08 139.71 202.98 139.72C202.87 139.74 202.63 139.83 202.45 139.94C202.19 140.09 202.13 140.23 202.12 140.65C202.12 140.93 202.07 141.67 202.02 142.28C201.96 142.89 201.83 143.85 201.72 144.43C201.62 145 201.47 145.53 201.41 145.6C201.34 145.67 201.31 145.76 201.35 145.8C201.39 145.83 201.33 146.13 201.22 146.45C201.12 146.77 200.94 147.59 200.82 148.27C200.71 148.96 200.59 149.62 200.56 149.74C200.51 149.91 200.67 150.07 201.12 150.32C201.46 150.52 201.75 150.72 201.77 150.78C201.79 150.84 201.86 150.85 201.93 150.82C202 150.78 202.06 150.81 202.06 150.88C202.06 150.95 202.11 151 202.16 150.99C202.21 150.97 202.51 151.12 202.81 151.31C203.12 151.51 204 151.97 204.77 152.35C205.54 152.73 206.2 153.07 206.24 153.11C206.27 153.15 206.96 153.5 207.77 153.89C208.58 154.28 209.24 154.64 209.24 154.7C209.24 154.75 209.28 154.78 209.33 154.76C209.39 154.75 210.13 155.12 211 155.6C211.86 156.08 213.06 156.73 213.67 157.04C214.28 157.36 215.25 157.88 215.82 158.21C216.39 158.53 217.34 159.12 217.91 159.5C218.49 159.89 219.68 160.65 220.55 161.18C221.43 161.72 222.94 162.68 223.91 163.3C224.87 163.93 225.71 164.42 225.76 164.39C225.82 164.36 225.79 163.7 225.71 162.92C225.63 162.15 225.49 160.66 225.41 159.62C225.34 158.58 225.21 156.35 225.13 154.66C225.06 152.98 225.03 150.63 225.07 149.45C225.12 148.26 225.21 146.56 225.28 145.67C225.35 144.77 225.5 143.57 225.6 142.99C225.7 142.42 225.94 141.51 226.13 140.97C226.31 140.43 226.57 139.82 226.71 139.6L226.95 139.21C225.5 139.06 223.63 139.02 221.86 139.02C220.1 139.03 218.63 139.05 218.6 139.08Z" />
						</g>
					</g>
				</g>
				<path id="Path 0" class="shp4" d="M122.65 138.49C122.06 138.55 120.75 138.7 119.73 138.83C118.71 138.96 117.23 139.2 116.44 139.35C115.66 139.5 114.79 139.69 114.52 139.77C114.24 139.85 112.99 140.2 111.73 140.56C110.48 140.92 109.23 141.3 108.95 141.41C108.68 141.52 107.74 141.87 106.88 142.2C106.02 142.53 105.12 142.88 104.88 142.98C104.65 143.08 103.99 143.37 103.42 143.61C102.85 143.86 102.35 144.06 102.32 144.06C102.28 144.06 101.59 144.37 100.78 144.75C99.98 145.14 99.09 145.55 98.82 145.68C98.54 145.8 97.84 146.17 97.25 146.5C96.66 146.82 95.86 147.24 95.47 147.43C95.07 147.62 94.62 147.85 94.47 147.94C94.31 148.03 93.63 148.42 92.97 148.81C92.3 149.2 91.56 149.63 91.33 149.76C91.09 149.9 90.74 150.1 90.55 150.21C90.36 150.32 90.13 150.46 90.05 150.52C89.97 150.59 89.56 150.86 89.15 151.13C88.74 151.4 88.35 151.62 88.29 151.62C88.23 151.61 88.09 151.72 87.97 151.85C87.86 151.98 87.63 152.14 87.47 152.21C87.32 152.28 87.06 152.42 86.91 152.52C86.76 152.61 86.56 152.74 86.48 152.8C86.4 152.86 86.14 153.06 85.9 153.23C85.67 153.41 85 153.87 84.42 154.27C83.84 154.66 83.18 155.09 82.96 155.23C82.73 155.37 82.55 155.54 82.55 155.62C82.55 155.7 82.36 155.86 82.12 155.98C81.89 156.1 81.54 156.34 81.34 156.51C81.15 156.69 80.81 156.98 80.59 157.16C80.37 157.34 80.03 157.59 79.84 157.73C79.64 157.86 79.32 158.1 79.13 158.26C78.94 158.42 78.54 158.77 78.25 159.05C77.96 159.32 77.47 159.76 77.17 160.02C76.87 160.28 75.97 161.15 75.16 161.95C74.35 162.75 73.7 163.44 73.7 163.47C73.71 163.51 73.55 163.63 73.35 163.73C73.15 163.82 72.99 163.98 72.98 164.08C72.98 164.18 72.56 164.71 72.05 165.26C71.53 165.81 70.99 166.45 70.85 166.69C70.7 166.92 70.42 167.31 70.21 167.54C70 167.78 69.74 168.15 69.63 168.37C69.51 168.58 69.29 168.89 69.13 169.04C68.98 169.2 68.85 169.43 68.85 169.54C68.85 169.66 68.66 170.16 68.42 170.65C68.08 171.35 67.95 171.89 67.82 173.11C67.69 174.3 67.69 174.99 67.82 175.97C67.96 177.07 68.07 177.42 68.63 178.4C68.99 179.02 69.65 179.91 70.1 180.37C70.55 180.83 71.27 181.47 71.71 181.8C72.14 182.13 72.72 182.5 72.99 182.63C73.27 182.75 73.84 182.96 74.27 183.09C74.72 183.22 75.58 183.32 76.27 183.32C77.04 183.32 77.83 183.22 78.41 183.06C78.92 182.91 79.56 182.66 79.84 182.5C80.11 182.33 80.42 182.04 80.52 181.83C80.61 181.63 80.69 181.31 80.69 181.11C80.69 180.91 80.63 180.62 80.55 180.47C80.47 180.31 80.1 179.97 79.73 179.72C79.36 179.47 78.68 178.89 78.23 178.43C77.78 177.98 77.36 177.44 77.31 177.24C77.25 177.03 77.15 176.84 77.09 176.81C77.03 176.78 76.98 176.59 76.98 176.4C76.98 176.2 76.92 176.04 76.84 176.04C76.76 176.04 76.7 175.6 76.7 175.01C76.7 174.44 76.79 173.49 76.9 172.9C77.01 172.31 77.21 171.57 77.34 171.26C77.48 170.94 77.95 170.14 78.39 169.47C78.83 168.81 79.76 167.62 80.45 166.83C81.13 166.04 81.69 165.35 81.69 165.3C81.69 165.24 81.74 165.19 81.8 165.19C81.86 165.19 82.71 164.41 83.69 163.46C84.67 162.51 86.02 161.28 86.69 160.71C87.35 160.15 87.96 159.64 88.04 159.59C88.12 159.53 88.57 159.17 89.04 158.79C89.51 158.41 90.32 157.82 90.83 157.47C91.34 157.12 91.79 156.8 91.83 156.76C91.87 156.71 92.38 156.36 92.97 155.96C93.56 155.57 94.33 155.05 94.68 154.81C95.03 154.57 95.61 154.19 95.95 153.97C96.3 153.74 96.69 153.49 96.83 153.41C96.96 153.33 97.38 153.09 97.76 152.87C98.15 152.65 98.65 152.35 98.89 152.2C99.13 152.04 99.54 151.8 99.82 151.65C100.09 151.5 100.8 151.11 101.39 150.78C101.98 150.45 102.62 150.11 102.81 150.03C103.01 149.95 103.3 149.81 103.46 149.73C103.61 149.65 103.93 149.47 104.17 149.34C104.41 149.21 104.73 149.03 104.88 148.94C105.04 148.85 105.62 148.57 106.17 148.33C106.72 148.08 107.62 147.67 108.17 147.41C108.72 147.16 110.03 146.61 111.09 146.2C112.15 145.79 113.15 145.4 113.3 145.34C113.46 145.28 113.94 145.09 114.37 144.94C114.81 144.78 115.61 144.52 116.16 144.36C116.71 144.2 117.74 143.94 118.44 143.78C119.15 143.62 120.01 143.43 120.37 143.35C120.72 143.27 121.43 143.14 121.94 143.07C122.45 142.99 122.9 142.93 122.94 142.94C122.98 142.94 123.7 142.94 124.54 142.93L126.08 142.91L126.08 138.34C124.25 138.38 123.24 138.43 122.65 138.49ZM78.92 177.47C78.87 177.55 79.14 177.87 79.52 178.18C79.89 178.49 80.45 178.99 80.76 179.29C81.26 179.76 81.33 179.91 81.38 180.61C81.43 181.36 81.41 181.42 80.85 182.04C80.53 182.39 80.31 182.72 80.37 182.78C80.43 182.83 81.54 183.04 82.84 183.24C84.13 183.44 85.77 183.71 86.47 183.84C87.18 183.97 88.05 184.1 88.4 184.13C88.75 184.15 89.36 184.21 89.76 184.25C90.15 184.29 90.95 184.38 91.54 184.46C92.13 184.53 92.93 184.63 93.32 184.67C93.72 184.72 95.16 184.88 96.54 185.04C97.91 185.2 100.41 185.4 102.1 185.48C103.79 185.56 105.39 185.65 105.67 185.68C105.94 185.71 107.36 185.8 108.81 185.89C110.26 185.97 112.48 186.11 113.73 186.2C114.99 186.28 118.26 186.36 121.01 186.37L126.01 186.39L126.01 181.54C124.68 181.47 123.68 181.55 122.94 181.67C122.19 181.79 120.84 181.97 119.94 182.06C118.91 182.18 116.1 182.24 112.38 182.25C108.62 182.25 105.75 182.18 104.53 182.07C103.47 181.97 101.64 181.79 100.46 181.67C99.28 181.55 97.55 181.36 96.61 181.24C95.66 181.12 94.22 180.9 93.4 180.74C92.57 180.58 91.03 180.29 89.97 180.1C88.91 179.9 87.8 179.68 87.51 179.61C87.21 179.53 86.7 179.4 86.37 179.32C86.03 179.24 85.57 179.14 85.33 179.11C85.1 179.07 84.45 178.91 83.91 178.74C83.36 178.58 82.78 178.39 82.62 178.33C82.46 178.27 82.08 178.16 81.76 178.08C81.45 178 80.87 177.85 80.48 177.76C80.09 177.66 79.66 177.52 79.52 177.45C79.38 177.38 79.21 177.33 79.13 177.33C79.06 177.33 78.96 177.39 78.92 177.47Z" />
				<path id="Path 0" class="shp4" d="M124.65 140.63L124.65 142.91C127.03 142.94 127.75 142.94 127.79 142.94C127.83 142.93 128.28 142.99 128.79 143.07C129.3 143.14 130 143.27 130.36 143.35C130.71 143.43 131.58 143.62 132.28 143.78C132.99 143.94 134.02 144.2 134.57 144.36C135.12 144.52 135.92 144.78 136.35 144.94C136.78 145.09 137.26 145.28 137.42 145.34C137.58 145.4 138.57 145.79 139.63 146.2C140.69 146.61 141.98 147.14 142.49 147.38C143 147.61 144.19 148.18 145.13 148.64C146.07 149.1 147 149.56 147.2 149.68C147.39 149.79 147.71 149.95 147.91 150.03C148.11 150.11 148.75 150.45 149.34 150.78C149.93 151.11 150.63 151.5 150.91 151.65C151.18 151.8 151.6 152.04 151.84 152.2C152.07 152.35 152.58 152.65 152.96 152.87C153.35 153.09 153.77 153.33 153.9 153.41C154.03 153.49 154.42 153.74 154.77 153.97C155.12 154.19 155.69 154.57 156.05 154.81C156.4 155.05 157.17 155.57 157.76 155.96C158.35 156.36 158.86 156.71 158.9 156.76C158.94 156.8 159.39 157.12 159.9 157.47C160.41 157.82 161.21 158.41 161.68 158.79C162.15 159.17 162.6 159.53 162.68 159.59C162.76 159.64 163.37 160.15 164.04 160.71C164.71 161.28 166.05 162.51 167.03 163.46C168.02 164.41 168.87 165.19 168.92 165.19C168.98 165.19 169.03 165.24 169.03 165.3C169.03 165.35 169.59 166.04 170.28 166.83C170.97 167.62 171.89 168.81 172.33 169.47C172.77 170.14 173.25 170.94 173.38 171.26C173.52 171.57 173.72 172.31 173.83 172.9C173.93 173.49 174.02 174.44 174.02 175.01C174.03 175.6 173.97 176.04 173.88 176.04C173.81 176.04 173.74 176.2 173.74 176.4C173.74 176.59 173.69 176.78 173.63 176.81C173.58 176.84 173.48 177.03 173.42 177.24C173.36 177.44 172.94 177.98 172.49 178.43C172.04 178.89 171.37 179.47 170.99 179.72C170.62 179.97 170.25 180.31 170.17 180.47C170.1 180.62 170.03 180.91 170.03 181.11C170.03 181.31 170.11 181.63 170.21 181.83C170.31 182.04 170.61 182.33 170.89 182.5C171.16 182.66 171.8 182.91 172.31 183.06C172.9 183.22 173.69 183.32 174.45 183.32C175.15 183.32 176.01 183.22 176.45 183.09C176.89 182.96 177.46 182.75 177.73 182.63C178 182.5 178.58 182.13 179.02 181.8C179.45 181.47 180.18 180.83 180.63 180.37C181.07 179.91 181.73 179.02 182.09 178.4C182.65 177.42 182.77 177.07 182.91 175.97C183.03 174.99 183.03 174.3 182.91 173.11C182.77 171.89 182.64 171.35 182.31 170.65C182.07 170.16 181.88 169.66 181.88 169.54C181.88 169.43 181.75 169.2 181.59 169.04C181.43 168.89 181.21 168.58 181.1 168.37C180.99 168.15 180.72 167.78 180.52 167.54C180.31 167.31 180.02 166.92 179.88 166.69C179.74 166.45 179.2 165.81 178.68 165.26C178.17 164.71 177.74 164.18 177.74 164.08C177.74 163.98 177.58 163.82 177.38 163.73C177.18 163.63 177.02 163.51 177.02 163.47C177.03 163.44 176.37 162.75 175.57 161.95C174.76 161.15 173.85 160.28 173.55 160.02C173.25 159.76 172.77 159.32 172.48 159.05C172.19 158.77 171.79 158.42 171.6 158.26C171.4 158.1 171.08 157.86 170.89 157.73C170.69 157.59 170.35 157.34 170.13 157.16C169.91 156.98 169.58 156.69 169.38 156.51C169.19 156.34 168.84 156.1 168.6 155.98C168.37 155.86 168.18 155.7 168.18 155.62C168.18 155.54 167.99 155.37 167.77 155.23C167.55 155.09 166.89 154.66 166.31 154.27C165.72 153.87 165.05 153.41 164.82 153.23C164.59 153.06 164.33 152.86 164.24 152.8C164.16 152.74 163.97 152.61 163.82 152.52C163.66 152.42 163.41 152.28 163.25 152.21C163.09 152.14 162.87 151.98 162.75 151.85C162.63 151.72 162.49 151.61 162.43 151.62C162.37 151.62 161.99 151.4 161.58 151.13C161.16 150.86 160.76 150.59 160.68 150.52C160.59 150.46 160.37 150.32 160.18 150.21C159.98 150.1 159.63 149.9 159.4 149.76C159.16 149.63 158.43 149.2 157.76 148.81C157.09 148.42 156.42 148.03 156.26 147.94C156.1 147.85 155.65 147.62 155.26 147.43C154.87 147.24 154.07 146.82 153.48 146.5C152.89 146.17 152.18 145.8 151.91 145.68C151.63 145.55 150.75 145.14 149.94 144.75C149.14 144.37 148.45 144.06 148.41 144.06C148.37 144.06 147.87 143.86 147.3 143.61C146.74 143.37 146.08 143.08 145.84 142.98C145.61 142.88 144.71 142.53 143.84 142.2C142.98 141.87 142.05 141.52 141.77 141.41C141.5 141.3 140.25 140.92 138.99 140.56C137.74 140.2 136.48 139.85 136.21 139.77C135.93 139.69 135.07 139.5 134.28 139.35C133.5 139.2 132.05 138.97 131.07 138.84C130.09 138.72 128.68 138.56 127.93 138.49C127.19 138.41 126.14 138.35 125.61 138.35L124.65 138.34L124.65 140.63ZM171.17 177.46C171.06 177.52 170.7 177.64 170.39 177.72C170.07 177.79 169.5 177.94 169.1 178.04C168.71 178.14 168.26 178.27 168.1 178.33C167.95 178.39 167.37 178.58 166.82 178.74C166.27 178.91 165.63 179.07 165.39 179.11C165.16 179.14 164.69 179.24 164.36 179.32C164.02 179.4 163.51 179.53 163.22 179.61C162.92 179.68 161.81 179.9 160.76 180.1C159.7 180.29 158.15 180.58 157.33 180.74C156.51 180.9 155.06 181.12 154.12 181.24C153.18 181.36 151.44 181.55 150.27 181.67C149.09 181.79 147.26 181.97 146.2 182.07C144.97 182.18 142.11 182.25 138.35 182.25C134.63 182.24 131.82 182.18 130.79 182.06C129.88 181.97 128.53 181.79 127.79 181.67C127.04 181.55 126.05 181.47 125.58 181.49L124.72 181.54C124.65 186.31 124.65 186.32 124.97 186.4C125.15 186.44 127.41 186.45 130 186.41C132.59 186.38 135.74 186.28 136.99 186.2C138.25 186.11 140.46 185.97 141.92 185.89C143.37 185.8 144.78 185.71 145.06 185.68C145.33 185.65 146.94 185.56 148.62 185.48C150.31 185.4 152.82 185.2 154.19 185.04C155.56 184.88 157.01 184.72 157.4 184.67C157.79 184.63 158.6 184.53 159.19 184.46C159.77 184.38 160.58 184.29 160.97 184.25C161.36 184.21 161.97 184.15 162.32 184.13C162.68 184.1 163.54 183.97 164.25 183.84C164.96 183.71 166.6 183.44 167.89 183.24C169.19 183.04 170.29 182.83 170.35 182.78C170.42 182.72 170.2 182.39 169.88 182.04C169.32 181.42 169.29 181.36 169.35 180.61C169.4 179.91 169.47 179.76 169.97 179.29C170.28 178.99 170.83 178.49 171.21 178.18C171.58 177.87 171.85 177.55 171.81 177.47C171.78 177.39 171.66 177.33 171.57 177.33C171.47 177.34 171.29 177.4 171.17 177.46Z" />
				<path id="Polygon 1" class="shp0" d="M96.62 140.45L101.66 182.44L85.23 179.82L96.62 140.45Z" />
				<path id="Polygon 1 copy" class="shp0" d="M153.51 140.45L148.47 182.44L164.9 179.82L153.51 140.45Z" />
				<path id="Polygon 1 copy 2" class="shp0" d="M139.39 154.27L134.26 183.48L145.08 182.24L139.39 154.27Z" />
				<path id="Polygon 1 copy 3" class="shp0" d="M110.74 154.27L115.87 183.48L105.05 182.24L110.74 154.27Z" />
				<path id="Path 0" class="shp5" d="M80.75 180.45C80.92 182.17 81.73 183.16 83.25 183.49C84.49 183.76 89.1 184.53 93.5 185.19C98.05 185.88 111.84 186.4 125.5 186.4C139.22 186.4 152.71 185.89 157 185.21C161.12 184.56 165.74 183.79 167.25 183.51C168.88 183.21 169.82 182.49 169.56 181.75C169.32 181.06 169.64 179.94 170.26 179.25C171.15 178.28 170.74 178 168.4 178C166.75 178 164.97 178.4 164.45 178.88C163.93 179.37 159.9 180.26 155.5 180.86C151.1 181.46 137.37 181.94 125 181.94C109.44 181.93 99.88 181.46 94 180.43C89.32 179.6 84.37 178.69 83 178.41C80.81 177.96 80.53 178.21 80.75 180.45Z" />
			</g>
		</g>
	</g>
</svg>