<svg version="1.2" baseProfile="tiny-ps" xmlns="http://www.w3.org/2000/svg" viewBox="0 0 4000 4000" width="4000" height="4000">
	<title>Layer 1</title>
	<style>
		tspan { white-space:pre }
		.shp0 { opacity: 0.992;fill: #b4b5b7 } 
		.shp1 { opacity: 0.996;fill: #ececeb } 
	</style>
	<g id="Layer 1">
		<path id="Path 0" fill-rule="evenodd" class="shp0" d="M1998.5 0.2C2043.05 0.13 2090.52 0.48 2104 0.98C2117.47 1.49 2140.65 2.84 2155.5 3.98C2170.35 5.13 2196.67 7.65 2214 9.58C2231.32 11.5 2256.97 14.62 2271 16.51C2285.02 18.39 2305.27 21.31 2316 23C2326.72 24.68 2345.4 27.87 2357.5 30.08C2369.6 32.29 2388.5 35.92 2399.5 38.13C2410.5 40.34 2432.32 45.06 2448 48.61C2463.67 52.16 2488.65 58.24 2503.5 62.11C2518.35 65.98 2540.4 72.01 2552.5 75.5C2564.6 78.98 2587.32 85.89 2603 90.85C2618.67 95.81 2641.85 103.46 2654.5 107.85C2667.15 112.24 2687.17 119.42 2699 123.81C2710.82 128.19 2729.5 135.38 2740.5 139.79C2751.5 144.19 2767.25 150.6 2775.5 154.03C2783.75 157.45 2800.17 164.65 2812 170.01C2823.82 175.37 2847.67 186.58 2865 194.92C2882.32 203.26 2912.25 218.23 2931.5 228.19C2950.75 238.15 2975.5 251.46 2986.5 257.76C2997.5 264.07 3014.82 274.21 3025 280.29C3035.17 286.37 3053.85 297.88 3066.5 305.87C3079.15 313.86 3100.52 327.8 3114 336.85C3127.47 345.9 3145.92 358.52 3155 364.89C3164.07 371.27 3183.87 385.73 3199 397.04C3214.12 408.34 3238.87 427.52 3254 439.67C3269.12 451.81 3288.47 467.74 3297 475.07C3305.52 482.4 3319.91 494.95 3328.96 502.95C3338.01 510.95 3353.09 524.66 3362.46 533.42C3371.83 542.17 3397.5 567.37 3419.51 589.42C3441.52 611.46 3466.08 636.7 3474.09 645.5C3482.1 654.3 3495.56 669.37 3503.99 679C3512.41 688.62 3527.21 705.95 3536.86 717.5C3546.52 729.05 3561.41 747.28 3569.96 758.01C3578.51 768.74 3593.42 788.09 3603.09 801.01C3612.77 813.93 3628.09 835.07 3637.13 848C3646.17 860.92 3658.54 878.92 3664.62 888C3670.7 897.07 3681.32 913.27 3688.22 924C3695.12 934.72 3706.83 953.62 3714.24 966C3721.65 978.37 3732.45 996.82 3738.24 1007C3744.03 1017.17 3754.5 1036.3 3761.51 1049.5C3768.53 1062.7 3781.36 1087.67 3790.03 1105C3798.7 1122.32 3809.72 1144.82 3814.51 1155C3819.3 1165.17 3826.6 1180.92 3830.72 1190C3834.85 1199.07 3842.27 1216.17 3847.22 1228C3852.16 1239.82 3859.95 1258.95 3864.52 1270.5C3869.09 1282.05 3876.69 1302.19 3881.41 1315.25C3886.14 1328.31 3893.81 1350.36 3898.48 1364.25C3903.14 1378.14 3909.46 1397.6 3912.53 1407.5C3915.6 1417.4 3921.27 1436.52 3925.12 1450C3928.97 1463.47 3935.46 1487.55 3939.54 1503.5C3943.62 1519.45 3949.01 1541.5 3951.52 1552.5C3954.04 1563.5 3958.29 1583.3 3960.97 1596.5C3963.66 1609.7 3967.9 1631.97 3970.41 1646C3972.91 1660.02 3976.53 1681.85 3978.44 1694.5C3980.36 1707.15 3983.06 1726.05 3984.45 1736.5C3985.84 1746.95 3988.55 1769.67 3990.46 1787C3992.37 1804.32 3994.85 1830.42 3995.97 1845C3997.1 1859.57 3998.45 1881.85 3998.99 1894.5C3999.53 1907.15 3999.97 1954.4 3999.98 1999.5C3999.98 2044.6 3999.54 2092.3 3998.98 2105.5C3998.43 2118.7 3996.84 2143.22 3995.45 2160C3994.06 2176.77 3991.81 2200.85 3990.44 2213.5C3989.07 2226.15 3986.8 2245.5 3985.4 2256.5C3984.01 2267.5 3981.31 2286.85 3979.41 2299.5C3977.52 2312.15 3974.37 2331.72 3972.43 2343C3970.49 2354.27 3966.41 2376.1 3963.37 2391.5C3960.33 2406.9 3955.61 2429.4 3952.88 2441.5C3950.16 2453.6 3944.37 2477.45 3940.03 2494.5C3935.68 2511.55 3929.37 2535.17 3926.01 2547C3922.65 2558.82 3916.96 2577.95 3913.39 2589.5C3909.81 2601.05 3903.35 2621.07 3899.03 2634C3894.72 2646.92 3886.46 2670.55 3880.68 2686.5C3874.9 2702.45 3865.9 2726.07 3860.69 2739C3855.47 2751.92 3847.36 2771.5 3842.68 2782.5C3838 2793.5 3829.92 2811.72 3824.73 2823C3819.54 2834.27 3812.44 2849.57 3808.95 2857C3805.46 2864.42 3794.88 2885.8 3785.44 2904.5C3776 2923.2 3764.55 2945.47 3760 2954C3755.44 2962.52 3748.12 2975.8 3743.72 2983.5C3739.32 2991.2 3730.45 3006.5 3724 3017.5C3717.55 3028.5 3705.18 3048.75 3696.5 3062.5C3687.82 3076.25 3673.52 3098.3 3664.71 3111.5C3655.91 3124.7 3643.52 3142.92 3637.18 3152C3630.85 3161.07 3616.61 3180.65 3605.55 3195.5C3594.49 3210.35 3577.31 3232.62 3567.38 3245C3557.45 3257.37 3542.91 3275.15 3535.07 3284.5C3527.23 3293.85 3512.82 3310.72 3503.05 3322C3493.28 3333.27 3477.26 3351.05 3467.46 3361.5C3457.65 3371.95 3433.18 3396.94 3413.07 3417.04C3392.95 3437.14 3369.96 3459.64 3361.97 3467.04C3353.98 3474.45 3337.56 3489.22 3325.47 3499.88C3313.39 3510.55 3294.5 3526.79 3283.5 3535.98C3272.5 3545.18 3255.4 3559.18 3245.5 3567.11C3235.6 3575.04 3216.7 3589.65 3203.5 3599.58C3190.3 3609.51 3171.85 3623.05 3162.5 3629.66C3153.15 3636.27 3137.62 3647.08 3128 3653.69C3118.37 3660.29 3100.6 3672.13 3088.5 3680.01C3076.4 3687.89 3060.2 3698.24 3052.5 3703.02C3044.8 3707.8 3026.35 3718.81 3011.5 3727.5C2996.65 3736.18 2972.8 3749.55 2958.5 3757.2C2944.2 3764.86 2914.27 3780.23 2892 3791.36C2869.72 3802.49 2840.02 3816.93 2826 3823.45C2811.97 3829.97 2792.62 3838.65 2783 3842.75C2773.37 3846.84 2752.67 3855.28 2737 3861.5C2721.32 3867.72 2696.57 3877.08 2682 3882.32C2667.42 3887.55 2645.37 3895.2 2633 3899.33C2620.62 3903.45 2598.8 3910.44 2584.5 3914.86C2570.2 3919.27 2551.3 3924.91 2542.5 3927.38C2533.7 3929.85 2516.15 3934.57 2503.5 3937.88C2490.85 3941.19 2468.57 3946.65 2454 3950.01C2439.42 3953.38 2411.97 3959.22 2393 3963C2374.02 3966.78 2347.7 3971.68 2334.5 3973.9C2321.3 3976.11 2297.67 3979.72 2282 3981.92C2266.32 3984.11 2237.3 3987.72 2217.5 3989.93C2197.7 3992.14 2169.57 3994.86 2155 3995.97C2140.42 3997.08 2118.15 3998.43 2105.5 3998.98C2092.85 3999.52 2045.37 3999.97 2000 3999.97C1954.62 3999.97 1907.15 3999.52 1894.5 3998.98C1881.85 3998.43 1859.57 3997.08 1845 3995.97C1830.42 3994.86 1802.3 3992.14 1782.5 3989.93C1762.7 3987.72 1733.67 3984.11 1718 3981.91C1702.32 3979.71 1680.05 3976.33 1668.5 3974.4C1656.95 3972.47 1636.92 3968.87 1624 3966.4C1611.07 3963.92 1591.95 3960.09 1581.5 3957.88C1571.05 3955.67 1552.15 3951.43 1539.5 3948.47C1526.85 3945.5 1505.92 3940.31 1493 3936.94C1480.07 3933.58 1460.95 3928.37 1450.5 3925.38C1440.05 3922.39 1417.32 3915.48 1400 3910.01C1382.67 3904.55 1357.02 3896.06 1343 3891.15C1328.97 3886.25 1311.65 3880.11 1304.5 3877.51C1297.35 3874.91 1280.92 3868.62 1268 3863.52C1255.07 3858.42 1236.17 3850.78 1226 3846.54C1215.82 3842.29 1197.82 3834.41 1186 3829.02C1174.17 3823.63 1151.22 3812.8 1135 3804.94C1118.77 3797.09 1091.32 3783.38 1074 3774.47C1056.67 3765.56 1035.75 3754.54 1027.5 3749.97C1019.25 3745.4 1002.37 3735.73 990 3728.48C977.62 3721.22 960.97 3711.25 953 3706.31C945.02 3701.38 928.82 3691.12 917 3683.53C905.17 3675.93 885.6 3662.95 873.5 3654.68C861.4 3646.41 843.62 3634.02 834 3627.15C824.37 3620.28 806.82 3607.37 795 3598.46C783.17 3589.55 765.4 3575.83 755.5 3567.97C745.6 3560.1 728.5 3546.16 717.5 3536.97C706.5 3527.78 689.4 3513.19 679.5 3504.53C669.6 3495.88 652.27 3480.21 641 3469.71C629.72 3459.21 602.72 3432.82 580.99 3411.06C559.26 3389.3 534.73 3364.07 526.47 3355C518.21 3345.92 503.58 3329.5 493.97 3318.5C484.35 3307.5 469.92 3290.62 461.9 3281C453.87 3271.37 440.82 3255.4 432.89 3245.5C424.97 3235.6 411.02 3217.6 401.91 3205.5C392.79 3193.4 381.29 3177.87 376.35 3171C371.41 3164.12 360.39 3148.37 351.86 3136C343.32 3123.62 329.43 3102.92 321 3090C312.56 3077.07 301.08 3059.07 295.49 3050C289.9 3040.92 278.77 3022.25 270.76 3008.5C262.74 2994.75 250.5 2972.92 243.54 2960C236.58 2947.07 221.33 2917.37 209.64 2894C197.96 2870.62 182.72 2839.12 175.79 2824C168.85 2808.87 159.95 2788.85 155.99 2779.5C152.04 2770.15 143.95 2750.35 138.01 2735.5C132.07 2720.65 122.84 2696.35 117.49 2681.5C112.14 2666.65 104.25 2643.92 99.95 2631C95.66 2618.07 88.77 2596.47 84.66 2583C80.55 2569.52 74.02 2547.02 70.16 2533C66.3 2518.97 60.88 2498.5 58.13 2487.5C55.37 2476.5 51.27 2459.4 49.01 2449.5C46.75 2439.6 43.1 2422.95 40.91 2412.5C38.71 2402.05 34.44 2380 31.41 2363.5C28.38 2347 24.15 2322.02 21.99 2308C19.84 2293.97 16.71 2271.92 15.05 2259C13.38 2246.07 10.68 2223.35 9.05 2208.5C7.42 2193.65 5.41 2172.5 4.58 2161.5C3.75 2150.5 2.5 2133.85 1.79 2124.5C0.85 2112.12 0.5 2078.12 0.5 1999.5C0.5 1921.36 0.85 1886.94 1.77 1875C2.47 1865.92 3.73 1849.5 4.56 1838.5C5.4 1827.5 7.42 1806.35 9.05 1791.5C10.68 1776.65 13.38 1753.92 15.05 1741C16.71 1728.07 19.66 1707.15 21.6 1694.5C23.53 1681.85 26.69 1662.5 28.62 1651.5C30.54 1640.5 34.77 1618.22 38.01 1602C41.24 1585.77 46.18 1562.6 48.98 1550.5C51.77 1538.4 57.17 1516.35 60.97 1501.5C64.77 1486.65 70.63 1464.82 73.99 1453C77.35 1441.17 84.17 1418.45 89.15 1402.5C94.13 1386.55 102.25 1361.8 107.2 1347.5C112.15 1333.2 119.8 1311.82 124.19 1300C128.59 1288.17 136.38 1268.15 141.5 1255.5C146.63 1242.85 154.4 1224.17 158.76 1214C163.13 1203.82 171.37 1185.37 177.08 1173C182.8 1160.62 196.08 1133.17 206.59 1112C217.11 1090.82 231.46 1062.7 238.48 1049.5C245.5 1036.3 255.97 1017.17 261.76 1007C267.54 996.82 278.89 977.47 286.98 964C295.07 950.52 309.46 927.57 318.94 913C328.43 898.42 341.62 878.62 348.26 869C354.91 859.38 365.76 843.85 372.38 834.5C379.01 825.15 391.38 808.27 399.87 797C408.37 785.72 421.4 768.85 428.83 759.5C436.26 750.15 450.97 732.15 461.51 719.5C472.06 706.85 486.01 690.42 492.52 683C499.03 675.57 512.26 660.73 521.93 650C531.59 639.28 557.5 612.46 579.5 590.42C601.5 568.37 627.37 542.98 637 533.98C646.62 524.99 660.35 512.42 667.5 506.04C674.65 499.67 689.95 486.35 701.5 476.45C713.05 466.54 734.87 448.56 750 436.47C765.12 424.39 787.17 407.27 799 398.43C810.82 389.59 826.8 377.86 834.5 372.35C842.2 366.85 857.05 356.48 867.5 349.3C877.95 342.12 894.37 331.1 904 324.8C913.62 318.5 931.62 307.03 944 299.3C956.37 291.58 975.5 279.96 986.5 273.48C997.5 267 1013.25 257.89 1021.5 253.24C1029.75 248.59 1051.8 236.87 1070.5 227.2C1089.2 217.53 1118.45 202.9 1135.5 194.7C1152.55 186.49 1176.17 175.39 1188 170.02C1199.82 164.65 1216.25 157.45 1224.5 154.03C1232.75 150.6 1248.5 144.19 1259.5 139.79C1270.5 135.38 1286.47 129.17 1295 125.98C1303.52 122.8 1322.65 115.91 1337.5 110.69C1352.35 105.47 1377.32 97.13 1393 92.17C1408.67 87.2 1428.25 81.11 1436.5 78.64C1444.75 76.16 1459.15 72.05 1468.5 69.49C1477.85 66.94 1495.85 62.21 1508.5 58.99C1521.15 55.77 1545.67 49.98 1563 46.13C1580.32 42.28 1606.42 36.88 1621 34.14C1635.57 31.39 1652.67 28.22 1659 27.09C1665.32 25.96 1680.85 23.46 1693.5 21.55C1706.15 19.63 1728.87 16.48 1744 14.55C1759.12 12.62 1782.07 9.91 1795 8.54C1807.92 7.17 1829.97 5.09 1844 3.92C1858.02 2.75 1880.3 1.46 1893.5 1.06C1906.7 0.66 1953.95 0.28 1998.5 0.2ZM1566.5 371.6C1554.4 372.99 1537.97 375.42 1530 377C1522.02 378.59 1511 381.42 1505.5 383.3C1500 385.18 1492.12 388.15 1488 389.91C1483.87 391.67 1476.67 395.16 1472 397.67C1467.32 400.19 1459.67 404.72 1455 407.75C1450.32 410.78 1442.46 416.46 1437.52 420.38C1432.58 424.29 1424.71 430.82 1420.02 434.87C1415.33 438.93 1403.21 449.96 1393.08 459.37C1382.95 468.79 1368.77 482.8 1361.58 490.5C1354.38 498.2 1346.05 507.42 1343.07 511C1340.08 514.57 1333.29 523.35 1327.98 530.5C1322.67 537.65 1313.58 550.47 1307.79 559C1302 567.52 1292.31 582.37 1286.27 592C1280.22 601.62 1272.35 614.67 1268.76 621C1265.18 627.32 1258.65 639.7 1254.25 648.5C1249.85 657.3 1243.76 670.35 1240.71 677.5C1237.66 684.65 1229.69 704 1222.99 720.5C1216.3 737 1204.5 765.57 1196.78 784C1189.06 802.42 1179.05 826.5 1174.53 837.5C1170.01 848.5 1162.68 866.95 1158.24 878.5C1153.79 890.05 1143.56 918.4 1135.49 941.5C1127.42 964.6 1118.13 990.25 1114.83 998.5C1111.53 1006.75 1105.34 1020.47 1101.08 1029C1096.82 1037.52 1090.22 1049.69 1086.42 1056.02C1082.61 1062.36 1075.45 1073.13 1070.5 1079.95C1065.55 1086.77 1057.64 1096.44 1052.92 1101.43C1048.21 1106.42 1038.31 1117.02 1030.94 1125C1023.56 1132.97 1012.1 1145.12 1005.46 1152C998.83 1158.87 980.15 1178.23 963.95 1195C947.75 1211.78 928.02 1232.48 920.09 1241C912.17 1249.53 902 1260.77 897.5 1266C893 1271.22 885.03 1281.12 879.78 1288C874.54 1294.87 867.16 1305.25 863.37 1311.06C859.59 1316.86 852.35 1329.24 847.27 1338.56C842.19 1347.88 834.61 1363.37 830.42 1373C826.22 1382.62 820.32 1397.92 817.3 1407C814.27 1416.07 809.87 1431.15 807.5 1440.5C805.14 1449.85 802.37 1462.45 801.35 1468.5C799.72 1478.2 799.5 1485.46 799.5 1530C799.5 1574.6 799.72 1581.78 801.36 1591.5C802.38 1597.55 804.53 1607.9 806.14 1614.5C807.75 1621.1 811.14 1633.47 813.67 1642C816.21 1650.52 820.96 1664.25 824.24 1672.5C827.52 1680.75 833.11 1693.57 836.66 1701C840.22 1708.42 846.55 1720.57 850.74 1728C854.93 1735.42 860.37 1744.65 862.83 1748.5C865.29 1752.35 870.02 1759.1 873.34 1763.5C876.67 1767.9 883.68 1776.67 888.93 1783C894.18 1789.32 906.36 1802.4 915.99 1812.05C925.62 1821.7 938.28 1833.4 944.12 1838.05C949.96 1842.7 959.3 1849.76 964.87 1853.75C970.44 1857.74 980.74 1864.45 987.75 1868.67C994.76 1872.89 1006.8 1879.61 1014.5 1883.6C1022.2 1887.6 1035.47 1893.76 1044 1897.31C1052.52 1900.85 1063.77 1905.19 1069 1906.95C1074.22 1908.71 1086.37 1912.15 1096 1914.59C1105.62 1917.03 1121.6 1920.36 1131.5 1921.97C1141.4 1923.59 1155.57 1925.61 1163 1926.46C1170.42 1927.3 1184.04 1928 1193.25 1928C1202.46 1928 1216.64 1927.32 1224.75 1926.49C1232.86 1925.66 1244.67 1924.28 1251 1923.44C1257.32 1922.6 1268.12 1920.76 1275 1919.35C1281.87 1917.94 1293.69 1915.04 1301.25 1912.9C1308.81 1910.75 1322.31 1906.26 1331.25 1902.9C1340.19 1899.55 1356.27 1892.55 1367 1887.34C1377.72 1882.13 1391.9 1874.68 1398.5 1870.77C1405.1 1866.87 1414.32 1861.11 1419 1857.98C1423.67 1854.84 1432.22 1848.6 1438 1844.1C1443.77 1839.6 1455.18 1829.75 1463.34 1822.21C1471.51 1814.67 1483.21 1802.93 1489.34 1796.13C1495.48 1789.32 1503.8 1779.65 1507.84 1774.63C1511.88 1769.61 1518.89 1759.87 1523.43 1753C1527.97 1746.12 1534.05 1736.45 1536.96 1731.5C1539.87 1726.55 1545.29 1716.42 1549.01 1709C1552.73 1701.57 1557.9 1690.55 1560.5 1684.5C1563.1 1678.45 1567.86 1665.62 1571.08 1656C1574.3 1646.37 1578.26 1633.1 1579.89 1626.5C1581.52 1619.9 1584 1608.65 1585.4 1601.5C1586.8 1594.35 1588.41 1584.67 1588.98 1580C1589.54 1575.32 1590.41 1562.27 1590.91 1551C1591.45 1538.74 1591.45 1522.06 1590.91 1509.5C1590.41 1497.95 1589.56 1484.9 1589.01 1480.5C1588.47 1476.1 1586.86 1466.2 1585.45 1458.5C1584.04 1450.8 1581.52 1439.1 1579.87 1432.5C1578.21 1425.9 1574.47 1413.3 1571.57 1404.5C1568.66 1395.7 1562.83 1380.85 1558.62 1371.5C1554.4 1362.15 1547.3 1347.75 1542.85 1339.5C1538.39 1331.25 1532.89 1321.47 1530.62 1317.76C1528.35 1314.06 1523.7 1307.08 1520.28 1302.26C1516.86 1297.44 1507.95 1285.62 1500.49 1276C1493.02 1266.37 1480.99 1250.4 1473.76 1240.5C1466.52 1230.6 1455.26 1214.4 1448.72 1204.5C1442.19 1194.6 1432.32 1178.85 1426.79 1169.5C1421.26 1160.15 1414.8 1149.57 1412.43 1146C1410.05 1142.42 1406.68 1136.35 1404.93 1132.5C1403.17 1128.65 1399.52 1119.65 1396.8 1112.5C1394.09 1105.35 1390.14 1092.75 1388.04 1084.5C1385.93 1076.25 1383.27 1063.87 1382.13 1057C1380.99 1050.12 1379.58 1039.1 1379 1032.5C1378.42 1025.9 1377.67 1002.27 1377.33 980C1376.94 953.64 1377.12 933.74 1377.86 923C1378.49 913.92 1380.58 895.59 1382.5 882.25C1384.43 868.91 1388.46 844.61 1391.46 828.25C1394.46 811.89 1398.97 789.27 1401.49 778C1404 766.72 1408.25 748.95 1410.93 738.5C1413.61 728.05 1418.53 710.05 1421.86 698.5C1425.2 686.95 1431.03 668.27 1434.82 657C1438.61 645.72 1443.35 632.56 1445.36 627.75C1447.36 622.94 1451.98 613.04 1455.63 605.75C1459.28 598.46 1465.48 587.32 1469.41 581C1473.34 574.67 1479.05 566.12 1482.09 562C1485.14 557.87 1492.15 549.1 1497.68 542.5C1503.21 535.9 1511.51 526.89 1516.12 522.49C1520.73 518.08 1527.42 512.24 1531 509.51C1534.57 506.78 1541.77 502.38 1547 499.73C1552.22 497.09 1559.99 493.81 1564.25 492.46C1568.52 491.11 1576.83 489.55 1582.75 489C1588.66 488.45 1605.65 488.01 1620.5 488.01C1635.35 488.01 1653.8 488.47 1661.5 489.03C1669.2 489.59 1680 490.96 1685.5 492.07C1691 493.18 1703.37 496.07 1713 498.5C1722.62 500.92 1734.32 504.05 1739 505.46C1743.67 506.86 1752.22 509.91 1758 512.22C1763.77 514.54 1772.1 518.28 1776.5 520.53C1780.9 522.78 1789 527.55 1794.5 531.12C1800 534.7 1808.76 541.2 1813.97 545.56C1819.18 549.93 1829.11 559.12 1836.02 566C1842.93 572.87 1851.3 581.87 1854.62 586C1857.94 590.12 1862.46 596.2 1864.68 599.5C1866.9 602.8 1872.24 611.57 1876.56 619C1880.88 626.42 1887.87 639.92 1892.1 649C1896.32 658.07 1902.72 672.92 1906.3 682C1909.89 691.07 1915.59 706.6 1918.97 716.5C1922.35 726.4 1927.14 741.47 1929.62 750C1932.09 758.52 1936.3 774.27 1938.98 785C1941.66 795.72 1945.02 810.35 1946.43 817.5C1947.85 824.65 1949.47 834.77 1950.03 840C1950.59 845.22 1951.37 868 1951.77 890.6C1952.49 931.16 1952.47 931.72 1950.5 932.33C1949.4 932.67 1945.35 933.61 1941.5 934.41C1937.65 935.21 1922.12 937.26 1907 938.96C1891.87 940.66 1868.7 943.83 1855.5 946.01C1842.3 948.2 1817.77 951.81 1801 954.04C1784.22 956.28 1759.92 959.88 1747 962.05C1734.07 964.22 1714.95 968.02 1704.5 970.5C1694.05 972.98 1677.85 977.06 1668.5 979.56C1659.15 982.07 1642.5 986.83 1631.5 990.15C1620.5 993.47 1589.45 1003.41 1562.5 1012.24C1535.55 1021.08 1508.77 1030.08 1503 1032.24C1497.22 1034.4 1489.12 1037.74 1485 1039.65C1480.87 1041.56 1476.7 1043.88 1475.72 1044.81C1474.74 1045.74 1473.95 1047.51 1473.97 1048.75C1473.99 1049.99 1476.76 1057.86 1480.13 1066.25C1483.5 1074.64 1490.21 1089.37 1495.05 1099C1499.89 1108.62 1507.76 1123.02 1512.54 1131C1517.32 1138.97 1525.84 1152.47 1531.48 1161C1537.12 1169.52 1547.41 1184.04 1554.36 1193.25C1561.31 1202.46 1572.68 1217.54 1579.62 1226.75C1586.57 1235.96 1595.97 1248.9 1600.51 1255.5C1605.05 1262.1 1611.89 1272.67 1615.7 1279C1619.51 1285.32 1625.81 1296.35 1629.68 1303.5C1633.56 1310.65 1639.53 1322.8 1642.94 1330.5C1646.35 1338.2 1651.09 1349.9 1653.48 1356.5C1655.88 1363.1 1660.61 1378.62 1664 1391C1667.39 1403.37 1672.12 1422.05 1674.51 1432.5C1676.89 1442.95 1679.33 1455.1 1679.91 1459.5C1680.5 1463.9 1681.45 1475.82 1682.02 1486C1682.59 1496.17 1683.06 1521.15 1683.07 1541.5C1683.07 1569.61 1682.7 1581.38 1681.49 1590.5C1680.62 1597.1 1678.36 1610.15 1676.48 1619.5C1674.59 1628.85 1671 1643.92 1668.49 1653C1665.98 1662.07 1661.87 1676.02 1659.36 1684C1656.85 1691.97 1652.1 1705.7 1648.8 1714.5C1645.49 1723.3 1640.22 1735.9 1637.08 1742.5C1633.94 1749.1 1627.59 1761.02 1622.97 1769C1618.35 1776.97 1610.04 1790.25 1604.52 1798.5C1598.99 1806.75 1589.24 1820.47 1582.85 1829C1576.47 1837.52 1566.58 1849.67 1560.87 1856C1555.17 1862.32 1545.78 1872.2 1540 1877.95C1534.23 1883.69 1523.2 1893.8 1515.5 1900.4C1507.8 1907 1495.65 1916.73 1488.5 1922.03C1481.35 1927.32 1469.87 1935.49 1463 1940.19C1456.12 1944.89 1446 1951.43 1440.5 1954.73C1435 1958.03 1425.1 1963.44 1418.5 1966.75C1411.9 1970.07 1401.1 1975.04 1394.5 1977.82C1387.9 1980.59 1376.87 1984.96 1370 1987.51C1363.12 1990.07 1350.07 1994.41 1341 1997.16C1331.92 1999.91 1315.5 2004.34 1304.5 2007.01C1293.5 2009.69 1279.66 2012.8 1273.75 2013.94C1267.84 2015.07 1256.59 2016.49 1248.75 2017.09C1239.84 2017.77 1215.39 2018.02 1183.5 2017.74C1142.06 2017.37 1130.77 2016.98 1123.25 2015.65C1118.16 2014.74 1106.01 2012.15 1096.25 2009.89C1086.49 2007.62 1071.97 2004 1064 2001.84C1056.02 1999.68 1040.72 1994.95 1030 1991.34C1019.27 1987.72 1005.77 1982.76 1000 1980.3C994.22 1977.84 982.52 1972.35 974 1968.09C965.47 1963.84 953.55 1957.4 947.5 1953.78C941.45 1950.17 924.57 1938.86 910 1928.66C895.42 1918.45 882.49 1909.52 881.26 1908.8C880.03 1908.09 878.81 1907.72 878.55 1908C878.29 1908.27 873.14 1929.2 867.12 1954.5C861.09 1979.8 853.22 2014 849.64 2030.5C846.05 2047 839.98 2076.02 836.14 2095C832.3 2113.97 825.91 2146.82 821.94 2168C817.97 2189.17 811.26 2226.97 807.04 2252C799.69 2295.64 799.27 2297.55 796.94 2298.75C795.6 2299.44 784.82 2303.77 773 2308.38C761.17 2312.99 745.1 2319.62 737.27 2323.13L723.04 2329.5C718.2 2347.32 715.94 2356.77 714.91 2362C713.87 2367.22 712.52 2378.47 711.91 2387C711.23 2396.32 711.04 2411.87 711.41 2426C711.76 2438.92 712.49 2458.72 713.05 2470C713.6 2481.27 714.73 2498.6 715.56 2508.5C716.39 2518.4 718.19 2536.62 719.55 2549C720.92 2561.37 723.16 2578.36 724.52 2586.75C725.88 2595.14 727.7 2603.91 728.56 2606.25C729.42 2608.59 732.73 2618.15 735.93 2627.5C739.12 2636.85 744.23 2651.02 747.27 2659C750.31 2666.97 755.81 2682.95 759.48 2694.5C763.16 2706.05 769.69 2726.07 774 2739C778.3 2751.92 785.18 2770.82 789.28 2781C793.37 2791.17 799.21 2804.9 802.24 2811.5C805.28 2818.1 808.04 2824.51 808.38 2825.75C808.89 2827.6 808.42 2828.25 805.75 2829.4C803.96 2830.18 793.95 2831.74 783.5 2832.88C773.05 2834.02 755.95 2835.64 745.5 2836.48C735.05 2837.32 708.5 2839.37 686.5 2841.03C664.5 2842.68 639.52 2844.71 631 2845.54C622.47 2846.37 608.52 2848.17 600 2849.56C591.47 2850.94 580.9 2852.98 576.5 2854.09C572.1 2855.19 564.9 2857.24 560.5 2858.64C556.1 2860.04 548.22 2862.99 543 2865.21C537.77 2867.43 530.57 2870.72 527 2872.53C523.42 2874.34 517.35 2878.04 513.5 2880.75C509.65 2883.47 503.63 2888.57 500.13 2892.1C496.62 2895.62 490.96 2902.1 487.55 2906.5C484.14 2910.9 479.72 2917.2 477.74 2920.5C475.75 2923.8 472.13 2930.77 469.68 2936C467.24 2941.22 463.16 2950.56 460.62 2956.75L456 2968C457.55 2991.64 458.51 3002.77 459.13 3008C459.75 3013.22 461.33 3021.21 462.63 3025.75C463.93 3030.29 466.17 3036.36 467.61 3039.25C469.31 3042.69 473.89 3048.13 480.86 3055.01C486.71 3060.79 495.32 3068.35 500 3071.82C504.67 3075.28 513.67 3080.74 520 3083.95C526.32 3087.15 537.35 3092.18 544.5 3095.12C551.65 3098.06 558.55 3101.37 559.83 3102.48C561.95 3104.32 562.23 3105.68 563.03 3118C563.85 3130.59 564.16 3132 567.54 3139C569.54 3143.12 573.5 3149.87 576.34 3153.99C579.18 3158.11 586.45 3166.49 592.5 3172.6C598.55 3178.72 606.42 3185.66 610 3188.03C613.57 3190.4 621.45 3194.32 627.5 3196.74C633.55 3199.15 641.87 3202.09 646 3203.26C651.69 3204.88 656.03 3205.37 664 3205.28C669.77 3205.22 681.47 3204.45 690 3203.58C698.52 3202.7 707.3 3201.71 709.5 3201.39L713.5 3200.79C726.53 3224.59 732.8 3235.55 735.84 3240.5C738.89 3245.45 743.92 3251.97 747.02 3255C750.13 3258.02 755.33 3261.93 758.58 3263.68C761.84 3265.43 768.55 3268.02 773.5 3269.45C778.52 3270.9 788.68 3272.69 796.5 3273.5C804.2 3274.29 818.11 3275.3 827.41 3275.72C836.71 3276.15 844.86 3276.95 845.51 3277.5C846.16 3278.05 847.95 3283.45 849.48 3289.5C851 3295.55 853.05 3302.07 854.01 3304C854.98 3305.92 857.96 3309.94 860.63 3312.93C863.31 3315.92 868.87 3320.56 873 3323.25C877.12 3325.95 884.32 3329.92 889 3332.1L897.5 3336.05C933.92 3335.97 955.07 3335.52 968 3335C983.1 3334.38 995.97 3333.29 1004 3331.93C1010.87 3330.77 1023.7 3328.02 1032.5 3325.82C1041.3 3323.62 1054.8 3319.35 1062.5 3316.32C1070.2 3313.3 1082.12 3307.9 1089 3304.33C1095.87 3300.76 1106 3294.89 1111.5 3291.29C1117 3287.68 1128.02 3279.76 1136 3273.68C1143.97 3267.59 1163.44 3252.35 1179.25 3239.81C1195.06 3227.26 1208.56 3216.74 1209.25 3216.42C1209.94 3216.1 1215.45 3217.95 1221.5 3220.54C1227.55 3223.13 1242.85 3230.41 1255.5 3236.71C1268.15 3243.01 1295.82 3256.62 1317 3266.96C1338.17 3277.3 1362.92 3289.24 1372 3293.49C1381.07 3297.74 1402 3307.28 1418.5 3314.69C1435 3322.11 1462 3333.94 1478.5 3340.98C1495 3348.03 1519.52 3358.3 1533 3363.81C1546.47 3369.32 1569.65 3378.19 1584.5 3383.52C1599.35 3388.85 1623.42 3397.18 1638 3402.02C1652.57 3406.87 1674.85 3414.04 1687.5 3417.96C1700.15 3421.87 1720.17 3427.73 1732 3430.98C1743.82 3434.22 1762.5 3439.12 1773.5 3441.87C1784.5 3444.61 1803.4 3448.89 1815.5 3451.36C1827.6 3453.84 1848.3 3457.67 1861.5 3459.87C1874.7 3462.08 1896.75 3465.46 1910.5 3467.39C1924.25 3469.32 1942.36 3471.37 1950.75 3471.95C1959.14 3472.53 1981.3 3473 2000 3473C2018.7 3473 2040.86 3472.53 2049.25 3471.95C2057.64 3471.37 2075.75 3469.32 2089.5 3467.38C2103.25 3465.45 2123.95 3462.3 2135.5 3460.4C2147.05 3458.49 2167.52 3454.71 2181 3452C2194.47 3449.29 2214.72 3444.79 2226 3441.99C2237.27 3439.19 2256.17 3434.24 2268 3431C2279.82 3427.76 2297.37 3422.66 2307 3419.67C2316.62 3416.67 2333.95 3411.19 2345.5 3407.47C2357.05 3403.76 2377.75 3396.78 2391.5 3391.97C2405.25 3387.15 2425.5 3379.85 2436.5 3375.74C2447.5 3371.62 2471.12 3362.17 2489 3354.72C2506.87 3347.27 2531.62 3336.82 2544 3331.49C2556.37 3326.16 2577.75 3316.83 2591.5 3310.77C2605.25 3304.7 2636.75 3289.87 2661.5 3277.81C2686.25 3265.74 2724.61 3246.68 2746.75 3235.44C2768.89 3224.2 2787.45 3215 2788 3215C2788.55 3215 2802.61 3225.68 2819.25 3238.73C2835.89 3251.79 2857.6 3268.57 2867.5 3276.03C2877.4 3283.49 2889.55 3292.1 2894.5 3295.16C2899.45 3298.22 2908.11 3303.03 2913.75 3305.86C2919.39 3308.69 2927.49 3312.4 2931.75 3314.12C2936.01 3315.83 2943.32 3318.55 2948 3320.15C2952.67 3321.76 2961.67 3324.38 2968 3325.98C2974.32 3327.59 2985.57 3330.03 2993 3331.4C3000.42 3332.78 3014.15 3334.37 3023.5 3334.94C3032.85 3335.51 3054.56 3335.98 3071.75 3335.99L3103 3336C3114.24 3330.39 3120.63 3326.9 3124.46 3324.63C3128.28 3322.36 3133.68 3318.43 3136.46 3315.9C3139.23 3313.37 3142.93 3308.65 3144.68 3305.4C3146.43 3302.16 3149.15 3295 3150.72 3289.5C3153.49 3279.82 3153.7 3279.44 3157.54 3277.6C3160.8 3276.04 3165.81 3275.48 3186 3274.42C3199.8 3273.7 3213.99 3272.41 3218.5 3271.47C3222.9 3270.55 3229.2 3268.82 3232.5 3267.63C3235.8 3266.43 3240.52 3264.27 3243 3262.81C3245.47 3261.36 3249.48 3258.44 3251.91 3256.33C3254.33 3254.23 3259.55 3247.55 3263.52 3241.5C3267.48 3235.45 3274.27 3223.81 3278.61 3215.63L3286.5 3200.76C3292.7 3201.69 3301.47 3202.68 3310 3203.56C3318.52 3204.44 3330.22 3205.21 3336 3205.28C3343.98 3205.37 3348.3 3204.88 3354 3203.26C3358.12 3202.09 3366.45 3199.15 3372.5 3196.74C3378.55 3194.32 3386.42 3190.39 3390 3188.01C3393.57 3185.63 3401.25 3178.92 3407.06 3173.09C3412.87 3167.27 3419.95 3159.35 3422.8 3155.5C3425.65 3151.65 3429.9 3144.73 3432.24 3140.12L3436.5 3131.73L3437.5 3101.77C3466.95 3089.84 3478.87 3084.67 3483 3082.58C3487.12 3080.5 3494.77 3075.6 3500 3071.7C3505.22 3067.81 3514.06 3060.09 3519.63 3054.56C3525.79 3048.45 3530.75 3042.54 3532.28 3039.5C3533.66 3036.75 3535.68 3031.8 3536.77 3028.5C3537.86 3025.2 3539.48 3018.22 3540.37 3013C3541.26 3007.77 3542.42 2995.4 3542.95 2985.5L3543.9 2967.5C3534.52 2945.8 3529.34 2934.55 3526.33 2928.5C3523.32 2922.45 3517.78 2913.45 3514.02 2908.5C3510.26 2903.55 3503.42 2895.86 3498.84 2891.42C3494.25 2886.98 3487.8 2881.53 3484.5 2879.31C3481.2 2877.09 3475.8 2873.92 3472.5 2872.26C3469.2 2870.6 3462.22 2867.43 3457 2865.21C3451.77 2862.99 3443.9 2860.04 3439.5 2858.64C3435.1 2857.24 3427.9 2855.19 3423.5 2854.09C3419.1 2852.98 3408.75 2850.97 3400.5 2849.61C3392.25 2848.25 3378.07 2846.44 3369 2845.58C3359.92 2844.73 3325.95 2841.98 3293.5 2839.49C3261.05 2836.99 3226.17 2834.02 3216 2832.88C3205.82 2831.74 3196.04 2830.17 3194.25 2829.4C3191.57 2828.25 3191.11 2827.61 3191.64 2825.75C3192 2824.51 3194.86 2817.87 3198 2811C3201.14 2804.12 3206.89 2790.62 3210.78 2781C3214.66 2771.37 3221.43 2752.7 3225.82 2739.5C3230.21 2726.3 3236.59 2706.72 3240 2696C3243.41 2685.27 3249.48 2667.72 3253.49 2657C3257.5 2646.27 3262.58 2632.1 3264.77 2625.5C3266.96 2618.9 3269.97 2608.55 3271.46 2602.5C3272.95 2596.45 3275.03 2586.77 3276.09 2581C3277.14 2575.22 3278.89 2562.4 3279.97 2552.5C3281.05 2542.6 3282.61 2526.4 3283.43 2516.5C3284.25 2506.6 3285.44 2487.7 3286.09 2474.5C3286.84 2458.96 3287.02 2436.4 3286.58 2410.5C3286.21 2388.5 3285.51 2366.22 3285.01 2361C3284.48 2355.34 3283.04 2348.47 3281.45 2344C3279.98 2339.87 3277.82 2334.8 3276.64 2332.72C3275.09 2329.97 3272.72 2328.01 3268 2325.55C3264.42 2323.69 3255.87 2319.85 3249 2317.01C3242.12 2314.18 3228.85 2308.93 3219.5 2305.35C3210.15 2301.77 3202.01 2298.32 3201.41 2297.67C3200.81 2297.03 3198.41 2285.02 3196.08 2271C3193.74 2256.97 3188.73 2227.95 3184.95 2206.5C3181.17 2185.05 3175.37 2153.32 3172.07 2136C3168.77 2118.67 3163.11 2090.55 3159.5 2073.5C3155.89 2056.45 3149.55 2027.42 3145.4 2009C3141.24 1990.57 3133.86 1959.52 3128.98 1940C3124.11 1920.47 3118.52 1898.65 3116.56 1891.5C3114.6 1884.35 3113 1878.16 3113 1877.75C3113 1877.34 3113.67 1877 3114.5 1877C3115.32 1877 3122.97 1880.15 3131.5 1884C3140.02 1887.85 3149.59 1891.71 3152.75 1892.58C3156.81 1893.69 3165.1 1894.32 3181 1894.7C3195.66 1895.06 3205.94 1894.86 3210.5 1894.12C3215.21 1893.35 3220.45 1891.48 3226.5 1888.39C3231.45 1885.86 3238.82 1881.48 3242.88 1878.65C3246.94 1875.82 3252 1871.59 3254.13 1869.25C3256.26 1866.91 3258.96 1863.09 3260.14 1860.75C3261.32 1858.41 3263.45 1853.57 3264.86 1850C3267.44 1843.51 3267.44 1843.47 3267.47 1812L3267.5 1780.5C3259.47 1764.22 3254.58 1755.45 3251.46 1750.5C3248.33 1745.55 3243.04 1737.9 3239.71 1733.5C3236.38 1729.1 3230.8 1722.24 3227.32 1718.25C3222.58 1712.81 3221.11 1710.44 3221.46 1708.75C3221.71 1707.51 3226.89 1694.57 3232.98 1680L3244.03 1653.5L3243.96 1589.5C3234.54 1571.67 3229.78 1563.35 3227.3 1559.5C3224.83 1555.65 3218.18 1548 3212.53 1542.5C3206.88 1537 3199.74 1530.7 3196.65 1528.5C3193.57 1526.3 3191.03 1524.16 3191.02 1523.75C3191.01 1523.34 3194.21 1514.56 3198.13 1504.25C3202.05 1493.94 3206.79 1481 3208.66 1475.5C3210.53 1470 3213.14 1461.22 3214.45 1456C3215.76 1450.77 3217.32 1443.24 3217.92 1439.25C3218.51 1435.26 3219 1428.51 3219 1424.25C3219 1419.99 3218.54 1412.67 3217.98 1408C3217.42 1403.32 3216.09 1396.57 3215.04 1393C3213.98 1389.42 3210.27 1380.87 3206.8 1374C3203.32 1367.12 3197.54 1357 3193.94 1351.5C3190.34 1346 3184.61 1338.01 3181.2 1333.75C3177.79 1329.49 3174.74 1324.76 3174.41 1323.25C3173.91 1320.9 3175.27 1318.63 3183.86 1307.5C3189.37 1300.35 3196.74 1289.77 3200.22 1284C3203.71 1278.22 3208.18 1269.45 3210.16 1264.5C3212.13 1259.55 3214.58 1252.35 3215.59 1248.5C3217.05 1242.97 3217.44 1237.81 3217.43 1224C3217.43 1211.4 3216.94 1203.98 3215.68 1197.5C3214.71 1192.55 3212.53 1184 3210.83 1178.5C3209.13 1173 3205.72 1164.67 3203.25 1160C3200.77 1155.32 3194.47 1144.97 3189.25 1137C3184.03 1129.02 3179.36 1121.49 3178.88 1120.25C3178.35 1118.89 3178.4 1117.21 3179 1116C3179.55 1114.9 3184.76 1108.49 3190.58 1101.75C3196.4 1095.01 3203.6 1085.56 3206.58 1080.75C3209.56 1075.94 3216.5 1063 3222 1052L3232 1032C3231.92 1002.16 3231.54 988.77 3231.09 983C3230.49 975.2 3229.7 971.34 3227.99 968C3226.73 965.52 3221.38 959.22 3216.1 954C3210.69 948.65 3203.66 942.85 3200 940.72C3196.42 938.64 3189.22 935.62 3184 934.01C3178.77 932.41 3171.57 930.57 3168 929.94C3164.42 929.31 3151.6 928.48 3139.5 928.11C3127.4 927.74 3109.17 927.75 3099 928.14C3081.15 928.82 3079.78 929.02 3060 934.01C3048.72 936.86 3034.1 940.96 3027.5 943.14C3020.9 945.31 3010.55 949.67 3004.5 952.83C2998.45 955.99 2988.32 961.89 2982 965.95C2975.67 970.01 2964.42 977.61 2957 982.84C2949.57 988.08 2939.9 995.08 2935.5 998.4C2931.1 1001.72 2923.22 1008.25 2918 1012.91C2912.77 1017.57 2903.77 1025.9 2898 1031.43C2892.22 1036.96 2881.93 1047.11 2875.12 1053.99C2868.31 1060.87 2855.31 1074.37 2846.23 1084C2837.15 1093.62 2825.46 1106.45 2820.25 1112.5C2815.05 1118.55 2806.18 1129.57 2800.55 1137C2794.92 1144.42 2786.34 1156.12 2781.47 1163C2776.6 1169.87 2768.02 1181.57 2762.39 1189C2756.76 1196.42 2749.3 1205.56 2745.83 1209.3L2739.5 1216.11C2714.44 1188.51 2702.29 1175.77 2696.34 1169.99C2690.38 1164.2 2679.2 1153.65 2671.5 1146.53C2663.8 1139.42 2650.97 1128 2643 1121.16C2635.02 1114.32 2624.45 1105.59 2619.5 1101.76C2614.55 1097.92 2603.97 1090.39 2596 1085.02C2588.02 1079.65 2577.45 1072.8 2572.5 1069.8C2567.55 1066.8 2556.75 1060.69 2548.5 1056.22C2540.25 1051.75 2525.85 1044.66 2516.5 1040.47C2506.67 1036.06 2486.42 1028.42 2468.5 1022.37C2451.45 1016.61 2424.9 1007.91 2409.5 1003.03C2394.1 998.16 2371.37 991.18 2359 987.51C2346.62 983.85 2326.82 978.39 2315 975.39C2303.17 972.39 2283.6 967.94 2271.5 965.51C2259.4 963.08 2242.07 959.95 2233 958.57C2223.92 957.18 2205.92 954.68 2193 953C2180.07 951.32 2159.37 948.39 2147 946.48C2134.62 944.58 2117.52 942.13 2109 941.05C2100.47 939.98 2078.65 937.71 2060.5 936.02C2042.35 934.33 2026.15 932.72 2024.5 932.46C2022.85 932.2 2020.72 931.2 2019.76 930.24C2018.4 928.87 2016.85 920.12 2012.56 889.5C2009.55 868.05 2005.7 841.05 2004.01 829.5C2002.31 817.95 1998.88 796.35 1996.39 781.5C1993.89 766.65 1990.28 746.85 1988.36 737.5C1986.44 728.15 1983.05 712.62 1980.83 703C1978.6 693.37 1974.55 677.62 1971.83 668C1969.1 658.37 1964.82 644.2 1962.32 636.5C1959.82 628.8 1954.85 614.62 1951.27 605C1947.7 595.37 1942.74 583.45 1940.25 578.5C1937.77 573.55 1933.45 565.45 1930.65 560.5C1927.85 555.55 1920.32 543.62 1913.91 534C1907.5 524.37 1897.84 511.32 1892.44 505C1887.05 498.67 1876.97 487.87 1870.05 481C1863.13 474.12 1852.07 463.85 1845.48 458.17C1838.89 452.49 1827.87 444.1 1821 439.52C1814.12 434.94 1803.55 428.37 1797.5 424.91C1791.45 421.45 1779.07 415.05 1770 410.7C1760.92 406.34 1747.42 400.18 1740 397C1732.57 393.82 1718.62 388.53 1709 385.24C1699.37 381.95 1685.2 377.65 1677.5 375.68C1669.8 373.72 1658.77 371.38 1653 370.48C1646.22 369.43 1634 368.74 1618.5 368.51C1605.3 368.32 1593.15 368.37 1591.5 368.62C1589.85 368.87 1578.6 370.21 1566.5 371.6ZM3089 1084.48C3094.45 1084.69 3101.06 1085.63 3104.5 1086.7C3107.8 1087.73 3112.91 1090.35 3115.85 1092.53C3119.71 1095.39 3121.94 1098.04 3123.84 1102C3126.16 1106.87 3126.51 1109 3126.87 1120.5C3127.21 1131.71 3126.98 1134.4 3125.16 1140C3124 1143.57 3121.24 1149.31 3119.03 1152.75C3116.81 1156.19 3113.2 1160.8 3111 1163C3108.8 1165.2 3104.19 1168.81 3100.75 1171.01C3096.3 1173.87 3092.05 1175.57 3086 1176.93C3081.32 1177.98 3075.47 1179.14 3073 1179.51C3070.52 1179.88 3063.1 1181.45 3056.5 1183C3049.9 1184.55 3038.65 1187.71 3031.5 1190.03C3024.35 1192.34 3012.2 1196.69 3004.5 1199.7C2996.8 1202.7 2982.85 1208.87 2973.5 1213.39C2964.15 1217.92 2953.8 1223.35 2950.5 1225.45C2947.2 1227.56 2940.45 1232.32 2935.5 1236.04C2930.55 1239.76 2920.65 1248.82 2913.5 1256.18C2906.35 1263.54 2892.4 1279.2 2882.5 1290.97C2872.6 1302.75 2860.9 1316.08 2856.5 1320.59C2849.89 1327.37 2847.58 1329.08 2843.25 1330.4C2838.26 1331.92 2837.79 1331.9 2833.75 1330.02C2831.41 1328.94 2827.25 1326.1 2824.5 1323.71C2821.7 1321.29 2818.45 1317.2 2817.11 1314.44C2815.17 1310.42 2814.86 1308.66 2815.44 1305C2815.83 1302.52 2817.53 1298.02 2819.22 1295C2820.9 1291.97 2825.31 1285.22 2829.01 1280C2832.71 1274.77 2840.64 1264.14 2846.62 1256.36C2852.6 1248.58 2867.67 1230.35 2880.11 1215.86C2892.54 1201.36 2908.29 1183.54 2915.11 1176.26C2921.92 1168.98 2930.43 1160.43 2934.01 1157.26C2937.59 1154.09 2944.34 1148.53 2949.01 1144.9C2953.68 1141.26 2962.9 1134.51 2969.5 1129.89C2976.1 1125.27 2986.9 1118.25 2993.5 1114.3C3000.1 1110.35 3009.32 1105.35 3014 1103.19C3018.67 1101.03 3027 1097.58 3032.5 1095.52C3038 1093.47 3047.45 1090.49 3053.5 1088.9C3059.55 1087.31 3067.87 1085.59 3072 1085.07C3076.12 1084.55 3083.77 1084.29 3089 1084.48ZM3102 1300.26C3111.29 1300.49 3113.02 1300.82 3117 1303.15C3119.47 1304.61 3124.35 1308.65 3127.84 1312.15C3131.33 1315.64 3135.29 1320.75 3136.65 1323.5C3138.93 1328.1 3139.1 1329.42 3138.79 1340C3138.51 1349.84 3138.11 1352.21 3135.98 1356.46C3134.62 1359.19 3131.02 1363.93 3128 1367C3124.97 1370.06 3120.02 1373.79 3117 1375.28C3112.78 1377.36 3106.96 1378.69 3092 1381.01C3081.27 1382.67 3066.42 1385.17 3059 1386.56C3051.57 1387.94 3041.22 1389.98 3036 1391.09C3030.77 1392.2 3019.3 1394.91 3010.5 1397.12C3001.7 1399.33 2987.52 1403.41 2979 1406.19C2970.47 1408.97 2953.6 1415.05 2941.5 1419.69C2929.4 1424.34 2915.11 1429.68 2909.75 1431.57C2904.39 1433.46 2898.87 1435 2897.5 1435C2896.12 1435 2893.76 1434.38 2892.25 1433.63C2890.74 1432.87 2888.04 1430.62 2886.25 1428.63C2884.46 1426.63 2882.27 1423.54 2881.38 1421.75C2880.48 1419.96 2879.52 1416.25 2879.24 1413.5C2878.9 1410.12 2879.23 1407.53 2880.26 1405.5C2881.09 1403.85 2885.32 1399.12 2889.65 1395C2893.97 1390.87 2902.91 1383.4 2909.51 1378.39C2916.1 1373.38 2925.32 1366.8 2930 1363.78C2934.67 1360.75 2944.8 1354.76 2952.5 1350.47C2960.2 1346.18 2971.67 1340.22 2978 1337.22C2984.32 1334.23 2995.12 1329.3 3002 1326.27C3008.87 1323.24 3017.65 1319.68 3021.5 1318.36C3025.35 1317.03 3036.6 1313.67 3046.5 1310.87C3056.4 1308.08 3070.57 1304.49 3078 1302.9C3088.9 1300.57 3093.52 1300.06 3102 1300.26ZM3097.5 1495.97L3111.75 1496.49C3121.16 1496.83 3127.19 1497.51 3129.5 1498.5C3131.42 1499.32 3134.82 1501.91 3137.05 1504.25C3139.28 1506.59 3141.59 1510.07 3142.18 1512C3142.78 1513.92 3143.07 1519.32 3142.84 1524C3142.48 1531.03 3141.89 1533.43 3139.45 1537.88C3137.83 1540.85 3133.57 1546.18 3130 1549.73C3125.41 1554.29 3121.15 1557.32 3115.5 1560.07C3107.63 1563.89 3107.19 1563.97 3088.5 1565.45C3078.05 1566.28 3057.35 1567.69 3042.5 1568.58C3027.65 1569.47 3006.47 1570.27 2975.39 1570.5L2971.19 1567.75C2968.89 1566.24 2965.64 1563.09 2963.97 1560.75C2961.4 1557.15 2960.94 1555.59 2960.96 1550.5C2960.97 1545.94 2961.63 1543.19 2963.73 1539.05C2965.26 1536.05 2967.62 1532.81 2969 1531.84C2970.37 1530.88 2978.92 1527.8 2988 1525.01C2997.07 1522.22 3015.97 1516.79 3030 1512.96C3044.02 1509.12 3064.95 1503.73 3076.5 1500.98L3097.5 1495.97ZM3049 1677.09C3053.12 1677.06 3059.42 1677.46 3063 1677.97C3066.57 1678.48 3074.22 1679.37 3080 1679.94C3085.77 1680.51 3101.97 1681.67 3116 1682.51C3130.02 1683.35 3145.1 1684.51 3149.5 1685.09C3153.9 1685.67 3159.3 1686.95 3161.5 1687.92C3163.7 1688.9 3167.75 1691.71 3170.5 1694.18C3173.25 1696.64 3176.29 1700.31 3177.25 1702.33C3178.56 1705.08 3179 1708.57 3179.01 1716.25C3179.01 1724.14 3178.63 1727.08 3177.36 1729C3176.44 1730.37 3174.3 1733.02 3172.6 1734.88C3170.89 1736.74 3167.47 1739.56 3165 1741.14C3161.74 1743.24 3159.26 1744.03 3156 1744.02C3153.52 1744.02 3146.55 1743.12 3140.5 1742.04C3134.45 1740.95 3120.27 1737.54 3109 1734.45C3097.72 1731.36 3079.05 1725.98 3067.5 1722.49C3055.95 1719 3044.02 1715.24 3041 1714.14C3037.26 1712.78 3034.62 1710.99 3032.75 1708.57C3031.24 1706.6 3029.32 1703.09 3028.48 1700.75C3027.64 1698.41 3026.96 1695.37 3026.96 1694C3026.96 1692.62 3028.27 1689.47 3029.87 1687C3031.47 1684.52 3034.06 1681.6 3035.64 1680.5C3037.21 1679.4 3039.17 1678.19 3040 1677.82C3040.82 1677.45 3044.87 1677.12 3049 1677.09Z" />
		<path id="Path 1" class="shp1" d="M1148.25 2210.49C1150.31 2210.77 1154.14 2212.08 1156.75 2213.41C1159.36 2214.73 1162.68 2217.09 1164.12 2218.66C1165.56 2220.22 1167.45 2222.62 1168.32 2224C1169.19 2225.37 1171.06 2231.22 1172.46 2237C1173.87 2242.77 1175.9 2254.25 1176.98 2262.5C1178.06 2270.75 1179.62 2284.92 1180.45 2294C1181.27 2303.07 1182.62 2322.2 1183.44 2336.5C1184.26 2350.8 1185.41 2373.3 1185.98 2386.5C1186.56 2399.7 1187.46 2430.97 1187.99 2456C1188.51 2481.02 1188.71 2508.25 1188.42 2516.5C1188.13 2524.75 1187.69 2532.96 1187.45 2534.75C1187.18 2536.73 1186.31 2538.2 1185.25 2538.5C1184.29 2538.77 1181.02 2538.36 1178 2537.58C1174.97 2536.8 1164.17 2532.8 1154 2528.7C1143.82 2524.59 1127.17 2517.41 1117 2512.75C1106.82 2508.09 1091.07 2500.64 1082 2496.21C1072.92 2491.77 1063.47 2486.81 1061 2485.19C1058.46 2483.52 1055.74 2480.66 1054.75 2478.62C1053.48 2475.99 1053 2472.53 1053 2466C1053 2461.05 1053.93 2450.36 1055.06 2442.25C1056.2 2434.14 1058.65 2419.17 1060.51 2409C1062.37 2398.82 1065.73 2382.17 1067.98 2372C1070.23 2361.82 1074.29 2344.95 1077 2334.5C1079.71 2324.05 1083.77 2309.2 1086.03 2301.5C1088.28 2293.8 1092.38 2281.42 1095.14 2274C1097.89 2266.57 1103.68 2253.3 1107.99 2244.5C1113.67 2232.92 1117.17 2227.08 1120.67 2223.36C1123.33 2220.54 1127.52 2217.21 1130 2215.96C1132.47 2214.71 1136.75 2212.85 1139.5 2211.83C1142.62 2210.68 1145.91 2210.17 1148.25 2210.49ZM2854.05 2211.22C2859.17 2211.44 2862.21 2212.29 2868.05 2215.14C2872.84 2217.48 2876.86 2220.33 2879.32 2223.14C2881.43 2225.54 2885.12 2231.1 2887.53 2235.5C2889.94 2239.9 2894.58 2249.57 2897.84 2257C2901.1 2264.42 2905.6 2275.9 2907.84 2282.5C2910.09 2289.1 2913.98 2301.7 2916.5 2310.5C2919.02 2319.3 2923.79 2337.52 2927.11 2351C2930.43 2364.47 2935.12 2385.4 2937.53 2397.5C2939.94 2409.6 2943.06 2427.94 2944.45 2438.25C2945.85 2448.56 2947 2461.05 2947 2466C2947 2472.53 2946.52 2476 2945.25 2478.62C2944.29 2480.61 2942.15 2483.25 2940.5 2484.49C2938.85 2485.72 2930.75 2490.11 2922.5 2494.24C2914.25 2498.37 2900.07 2505.13 2891 2509.27C2881.92 2513.41 2865.95 2520.38 2855.5 2524.75C2845.05 2529.13 2832.22 2534.19 2827 2536C2821.74 2537.82 2816.72 2539 2815.75 2538.64C2814.79 2538.29 2813.49 2536.76 2812.87 2535.25C2812.09 2533.35 2811.76 2520.37 2811.81 2493.5C2811.85 2472.05 2812.37 2438.75 2812.96 2419.5C2813.55 2400.25 2814.72 2370.32 2815.54 2353C2816.37 2335.67 2817.49 2315.65 2818.03 2308.5C2818.58 2301.35 2819.71 2288.97 2820.56 2281C2821.41 2273.02 2822.77 2262 2823.58 2256.5C2824.39 2251 2825.95 2242.79 2827.03 2238.25C2828.11 2233.71 2829.59 2228.54 2830.32 2226.75C2831.04 2224.96 2833.41 2221.52 2835.57 2219.09C2837.73 2216.67 2841.3 2213.84 2843.5 2212.81C2846.42 2211.44 2849.27 2211.01 2854.05 2211.22ZM1828.25 2275.02C1830.31 2275.01 1833.24 2275.62 1834.75 2276.37C1836.26 2277.13 1838.96 2279.38 1840.75 2281.37C1842.54 2283.37 1844.85 2286.69 1845.88 2288.75C1846.92 2290.81 1848.97 2296.32 1850.45 2301C1851.92 2305.67 1854.42 2316.02 1856 2324C1857.58 2331.97 1861.36 2356.05 1864.41 2377.5C1867.45 2398.95 1872 2431.8 1874.51 2450.5C1877.02 2469.2 1881.52 2503.85 1884.5 2527.5C1887.49 2551.15 1890.83 2580.4 1891.93 2592.5C1893.03 2604.6 1894.46 2623.05 1895.1 2633.5C1895.75 2644.1 1896.01 2660.9 1895.68 2671.5C1895.36 2681.95 1894.74 2691.57 1893.5 2695.26L1880 2694.58C1872.57 2694.2 1857.95 2693.24 1847.5 2692.43C1837.05 2691.63 1819.5 2690.07 1808.5 2688.96C1797.5 2687.84 1774.77 2685.35 1758 2683.42C1741.22 2681.48 1726.49 2679.7 1725.25 2679.45C1723.01 2679 1723 2678.94 1723.52 2664.25C1723.81 2656.14 1724.5 2637.35 1725.05 2622.5C1725.61 2607.65 1726.75 2588.97 1727.58 2581C1728.41 2573.02 1729.77 2562.22 1730.6 2557C1731.44 2551.77 1733.92 2538.05 1736.11 2526.5C1738.3 2514.95 1742.58 2494.25 1745.61 2480.5C1748.63 2466.75 1754.65 2441.32 1758.97 2424C1763.29 2406.67 1769.76 2382.37 1773.35 2370C1776.94 2357.62 1781.88 2341.65 1784.34 2334.5C1786.8 2327.35 1790.54 2317.45 1792.67 2312.5C1794.79 2307.55 1798.61 2300.12 1801.16 2296C1803.71 2291.87 1808.1 2286.36 1810.9 2283.75C1813.71 2281.14 1817.91 2278.11 1820.25 2277.02C1822.59 2275.93 1826.19 2275.03 1828.25 2275.02ZM2171.5 2275.03C2173.7 2275.04 2177.52 2275.98 2180 2277.12C2182.47 2278.27 2187 2281.75 2190.07 2284.85C2193.13 2287.96 2197.5 2293.65 2199.79 2297.5C2202.08 2301.35 2205.48 2308.1 2207.34 2312.5C2209.2 2316.9 2212.85 2326.57 2215.44 2334C2218.03 2341.42 2223.07 2357.62 2226.64 2370C2230.21 2382.37 2235.54 2401.95 2238.48 2413.5C2241.42 2425.05 2246.15 2444.4 2248.98 2456.5C2251.82 2468.6 2256.11 2487.95 2258.51 2499.5C2260.9 2511.05 2264.23 2527.92 2265.9 2537C2267.57 2546.07 2269.61 2558 2270.44 2563.5C2271.26 2569 2272.63 2581.94 2273.47 2592.25C2274.31 2602.56 2275.34 2626.05 2276.5 2677.9L2273 2679.35C2271.07 2680.16 2254.74 2682.41 2236.5 2684.39C2218.35 2686.36 2196.3 2688.64 2187.5 2689.46C2178.7 2690.27 2162.05 2691.61 2150.5 2692.43C2138.95 2693.26 2124.32 2694.24 2106.5 2695.29L2105.1 2689.9C2103.97 2685.57 2103.82 2678.73 2104.31 2655.5C2104.65 2639.55 2105.63 2618.17 2106.47 2608C2107.32 2597.82 2108.7 2583.2 2109.53 2575.5C2110.36 2567.8 2114.18 2537.42 2118 2508C2121.83 2478.57 2128.13 2431.55 2132 2403.5C2135.86 2375.45 2140.17 2345.75 2141.57 2337.5C2142.97 2329.25 2144.97 2318.67 2146.02 2314C2147.06 2309.32 2149 2302.35 2150.31 2298.5C2151.63 2294.65 2153.39 2290.15 2154.23 2288.5C2155.07 2286.85 2156.85 2283.97 2158.2 2282.11C2159.54 2280.24 2162.18 2277.88 2164.07 2276.86C2165.96 2275.84 2169.3 2275.02 2171.5 2275.03ZM1485.5 2327.4C1492.05 2327.62 1495.59 2328.24 1498.5 2329.71C1501.13 2331.03 1503.86 2333.74 1506.45 2337.61C1508.63 2340.85 1511.18 2345.52 1512.11 2348C1513.05 2350.47 1515.02 2357.22 1516.48 2363C1517.94 2368.77 1519.99 2379.12 1521.03 2386C1522.06 2392.87 1523.6 2405.02 1524.43 2413C1525.27 2420.97 1526.85 2441.22 1527.95 2458C1529.05 2474.77 1530.4 2496.6 1530.95 2506.5C1531.5 2516.4 1532.46 2539.12 1533.09 2557C1533.73 2575.49 1533.91 2598.77 1533.51 2611C1533.07 2624.45 1532.27 2634.28 1531.4 2637.25C1530.63 2639.86 1529.44 2642.25 1528.75 2642.57C1528.06 2642.88 1521.2 2641.47 1513.5 2639.43C1505.8 2637.39 1492.97 2633.99 1485 2631.87C1477.02 2629.75 1459.47 2625.51 1446 2622.46C1432.52 2619.42 1414.97 2615.12 1407 2612.92C1399.02 2610.72 1391.97 2608.6 1391.32 2608.21C1390.43 2607.67 1390.37 2604.06 1391.07 2593.5C1391.59 2585.8 1392.48 2575.22 1393.04 2570C1393.61 2564.77 1394.99 2553.97 1396.1 2546C1397.21 2538.02 1400.58 2519.12 1403.59 2504C1406.6 2488.87 1411.94 2464.8 1415.47 2450.5C1418.99 2436.2 1424.18 2416.85 1427 2407.5C1429.82 2398.15 1434.39 2384.42 1437.15 2377C1439.91 2369.57 1444.49 2358.81 1447.34 2353.07C1450.49 2346.7 1454.45 2340.52 1457.5 2337.19C1460.25 2334.2 1463.85 2331.08 1465.5 2330.25C1467.15 2329.43 1470.3 2328.38 1472.5 2327.93C1474.7 2327.47 1480.55 2327.23 1485.5 2327.4ZM2518.63 2327.3C2528.67 2327.5 2528.8 2327.53 2534.56 2331.5C2537.75 2333.7 2542.32 2337.97 2544.71 2341C2547.1 2344.02 2551.49 2351.45 2554.47 2357.5C2557.46 2363.55 2561.91 2374.12 2564.37 2381C2566.82 2387.87 2570.49 2398.9 2572.5 2405.5C2574.52 2412.1 2579.25 2429.65 2583.02 2444.5C2586.79 2459.35 2592.59 2485 2595.91 2501.5C2599.24 2518 2602.84 2538.25 2603.91 2546.5C2604.99 2554.75 2606.57 2569.37 2607.42 2579C2608.27 2588.62 2609.19 2599.09 2610 2608L2602.25 2610.48C2597.99 2611.84 2587.97 2614.52 2580 2616.43C2572.02 2618.34 2555.37 2622.22 2543 2625.06C2530.62 2627.89 2510.82 2632.9 2499 2636.19C2487.17 2639.47 2475.92 2642.23 2474 2642.33C2470.62 2642.49 2470.44 2642.32 2468.56 2637C2466.77 2631.91 2466.63 2628.55 2466.65 2592C2466.66 2570.27 2467.2 2541.92 2467.85 2529C2468.5 2516.07 2470.17 2487.72 2471.55 2466C2472.93 2444.27 2474.96 2418.4 2476.06 2408.5C2477.15 2398.6 2478.76 2386.22 2479.63 2381C2480.5 2375.77 2482.29 2367.22 2483.61 2362C2484.93 2356.77 2487.63 2349.12 2489.6 2345C2491.57 2340.87 2494.1 2336.37 2495.22 2335C2496.34 2333.62 2498.43 2331.62 2499.88 2330.54C2501.32 2329.46 2503.85 2328.24 2505.5 2327.84C2507.15 2327.43 2513.06 2327.19 2518.63 2327.3Z" />
		<path id="Path 2" class="shp0" d="M877 2908.04C878.92 2908.01 882.52 2909 885 2910.24C888.01 2911.75 890.23 2913.83 891.71 2916.5C892.93 2918.7 894.45 2922.97 895.08 2926C895.75 2929.18 895.94 2933.61 895.53 2936.5C894.93 2940.79 894.1 2942.21 889.66 2946.52C886.82 2949.28 877.75 2956.07 869.5 2961.62C861.25 2967.17 847.3 2976.2 838.5 2981.68C829.7 2987.17 813.05 2997.29 801.5 3004.17C789.95 3011.06 771.05 3022.01 759.5 3028.51C747.95 3035.01 730.4 3044.31 720.5 3049.19C710.6 3054.06 696.87 3060.26 690 3062.96C683.12 3065.67 673 3069.04 667.5 3070.46C662 3071.88 655.14 3073.03 652.25 3073.02C649.36 3073.01 644.41 3072.19 641.25 3071.2C638.09 3070.21 633.47 3068.01 631 3066.3C628.52 3064.6 625.51 3062.15 624.31 3060.86C623.1 3059.56 620.9 3055.8 619.41 3052.5C617.28 3047.78 616.83 3045.54 617.26 3042C617.56 3039.52 619.11 3034.57 620.71 3031C622.31 3027.42 625.73 3021.24 628.31 3017.25C630.89 3013.26 634.91 3007.93 637.25 3005.39C639.59 3002.86 644.65 2998.38 648.5 2995.44C652.35 2992.49 660.67 2987.13 667 2983.52C673.32 2979.9 684.12 2974.75 691 2972.05C697.87 2969.36 720.37 2961.22 741 2953.98C761.62 2946.73 791.77 2935.84 808 2929.78C824.22 2923.72 840.65 2917.65 844.5 2916.3C848.35 2914.95 856.45 2912.55 862.5 2910.96C868.55 2909.38 875.07 2908.07 877 2908.04ZM3125 2908.67C3127.47 2908.94 3133.77 2910.3 3139 2911.68C3144.22 2913.06 3161.55 2918.92 3177.5 2924.7C3193.45 2930.47 3224.05 2941.41 3245.5 2948.99C3266.95 2956.57 3290.8 2965.1 3298.5 2967.94C3306.2 2970.78 3317.22 2975.43 3323 2978.28C3328.77 2981.13 3338 2986.47 3343.5 2990.15C3349 2993.83 3355.97 2999.05 3359 3001.76C3362.02 3004.47 3366.95 3010.24 3369.95 3014.59C3372.95 3018.94 3376.94 3025.87 3378.81 3030C3380.68 3034.12 3382.46 3039.52 3382.75 3042C3383.17 3045.53 3382.71 3047.79 3380.59 3052.5C3379.1 3055.8 3376.89 3059.56 3375.69 3060.86C3374.49 3062.15 3371.7 3064.47 3369.5 3066C3367.3 3067.53 3362.69 3069.73 3359.25 3070.89C3355.81 3072.05 3350.64 3073 3347.75 3072.99C3344.86 3072.99 3337.55 3071.68 3331.5 3070.09C3325.45 3068.5 3316 3065.39 3310.5 3063.18C3305 3060.97 3297.8 3057.96 3294.5 3056.48C3291.2 3055.01 3282.2 3050.64 3274.5 3046.78C3266.8 3042.92 3251.27 3034.57 3240 3028.23C3228.72 3021.88 3210.05 3011.06 3198.5 3004.17C3186.95 2997.29 3170.3 2987.17 3161.5 2981.68C3152.7 2976.19 3140.1 2968.11 3133.5 2963.73C3126.9 2959.34 3118.57 2953.59 3115 2950.96C3111.42 2948.32 3107.75 2944.89 3106.83 2943.33C3105.92 2941.77 3104.85 2937.8 3104.46 2934.5C3103.96 2930.22 3104.21 2926.92 3105.32 2923C3106.19 2919.94 3108.36 2915.8 3110.19 2913.67C3112.23 2911.3 3114.84 2909.52 3117 2909.01C3118.92 2908.56 3122.52 2908.4 3125 2908.67ZM963 2997.75C964.37 2998.05 967.52 2999.3 970 3000.55C972.47 3001.79 975.85 3004.24 977.5 3005.98C980.09 3008.7 980.56 3010.06 980.91 3015.82C981.26 3021.58 980.97 3023.12 978.77 3027C977.37 3029.47 972.69 3034.88 968.36 3039C964.04 3043.13 952.17 3053.66 942 3062.39C931.82 3071.13 913.15 3086.56 900.5 3096.69C887.85 3106.82 871.87 3118.86 865 3123.44C858.12 3128.03 848.22 3134.37 843 3137.52C837.77 3140.68 826.97 3146.54 819 3150.54C811.02 3154.55 801.12 3158.96 797 3160.36C792.87 3161.76 786.35 3163.46 782.5 3164.15C777.03 3165.12 774.57 3165.13 771.25 3164.2C768.56 3163.44 764.92 3161.07 761.34 3157.75C758.23 3154.86 755.08 3151.04 754.34 3149.25C753.22 3146.52 753.22 3144.91 754.38 3139.25C755.14 3135.54 757.15 3129.12 758.85 3125C760.54 3120.87 764.27 3114.12 767.13 3110C769.99 3105.87 776.41 3098.42 781.41 3093.43C786.41 3088.44 794.1 3081.66 798.5 3078.35C802.9 3075.05 811.79 3069.12 818.25 3065.17C824.71 3061.23 835.06 3055.32 841.25 3052.05C847.44 3048.78 864.87 3040.19 880 3032.95C895.12 3025.71 914.25 3016.74 922.5 3013C930.75 3009.26 941.55 3004.52 946.5 3002.46C951.45 3000.4 956.62 2998.38 958 2997.97C959.37 2997.56 961.62 2997.46 963 2997.75ZM3040.32 2998.2C3042.62 2998.71 3049.45 3001.07 3055.5 3003.45C3061.55 3005.82 3078.42 3013.32 3093 3020.12C3107.57 3026.91 3128.5 3036.99 3139.5 3042.51C3150.5 3048.03 3166.02 3056.25 3174 3060.78C3181.97 3065.31 3193.45 3072.68 3199.5 3077.16C3205.55 3081.63 3214.58 3089.39 3219.57 3094.4C3224.55 3099.4 3230.88 3106.87 3233.62 3111C3236.37 3115.12 3240.05 3122.21 3241.81 3126.75C3243.56 3131.29 3245.37 3137.36 3245.81 3140.25C3246.26 3143.14 3246.29 3146.85 3245.88 3148.5C3245.44 3150.31 3242.53 3153.99 3238.57 3157.75C3233.76 3162.32 3230.99 3164.18 3228.25 3164.66C3226.19 3165.02 3221.35 3164.77 3217.5 3164.11C3213.65 3163.45 3207.12 3161.77 3203 3160.39C3198.87 3159.01 3188.97 3154.6 3181 3150.59C3173.02 3146.59 3162.22 3140.71 3157 3137.54C3151.77 3134.37 3141.87 3128.02 3135 3123.44C3128.12 3118.87 3112.15 3106.83 3099.5 3096.69C3086.85 3086.56 3068.17 3071.13 3058 3062.41C3047.82 3053.69 3035.97 3043.16 3031.66 3039.02C3027.34 3034.89 3022.97 3030.15 3021.94 3028.5C3020.91 3026.85 3019.62 3023.92 3019.06 3022C3018.42 3019.75 3018.4 3016.89 3019 3014C3019.63 3010.95 3021.31 3007.95 3024.22 3004.7C3026.74 3001.87 3030.07 2999.35 3032.32 2998.58C3035.05 2997.64 3037.33 2997.54 3040.32 2998.2ZM1040.41 3078.98C1041.56 3078.97 1044.52 3079.66 1047 3080.52C1049.47 3081.38 1053.24 3083.3 1055.37 3084.79C1057.5 3086.28 1060.41 3089.52 1061.83 3092C1063.84 3095.49 1064.42 3097.85 1064.4 3102.5C1064.38 3107.3 1063.74 3109.7 1061.19 3114.5C1059.44 3117.8 1055.66 3123.42 1052.79 3127C1049.92 3130.57 1037.85 3145.2 1025.96 3159.5C1014.08 3173.8 999.48 3190.9 993.52 3197.5C987.56 3204.1 977.46 3214.67 971.08 3221C964.71 3227.32 955.67 3235.6 950.99 3239.4C946.32 3243.19 940.47 3247.19 938 3248.28C935.52 3249.37 929.9 3251.16 925.5 3252.25C919.59 3253.72 915.28 3254.13 909 3253.82C903.31 3253.54 899.18 3252.76 896.5 3251.45C893.66 3250.07 891.84 3248.19 890.24 3245C888.65 3241.84 887.98 3238.72 887.97 3234.5C887.97 3231.04 889.03 3224.8 890.48 3219.75C891.87 3214.94 894.53 3207.74 896.41 3203.75C898.28 3199.76 901.84 3193.8 904.31 3190.5C906.77 3187.2 914.8 3178.65 922.15 3171.5C929.49 3164.35 945.13 3150.17 956.89 3140C968.66 3129.82 984.34 3116.55 991.74 3110.5C999.14 3104.45 1009.09 3096.68 1013.85 3093.24C1018.61 3089.79 1026.06 3085.18 1030.41 3082.99C1034.76 3080.79 1039.26 3078.99 1040.41 3078.98ZM2957.75 3080.01C2960.64 3080 2965.36 3080.89 2968.25 3081.97C2971.14 3083.06 2978.67 3087.85 2985 3092.62C2991.32 3097.39 3003.7 3107.19 3012.5 3114.4C3021.3 3121.6 3036.37 3134.23 3046 3142.45C3055.62 3150.68 3070.17 3163.95 3078.33 3171.95C3086.49 3179.95 3095.11 3189.42 3097.49 3193C3099.87 3196.57 3103.01 3202.2 3104.47 3205.5C3105.94 3208.8 3108.24 3215.32 3109.59 3220C3110.99 3224.85 3112.03 3231.08 3112.03 3234.5C3112.02 3238.72 3111.35 3241.84 3109.76 3245C3108.17 3248.16 3106.31 3250.09 3103.5 3251.5C3100.2 3253.15 3097.5 3253.5 3088 3253.5C3078.99 3253.5 3074.98 3253.03 3069.5 3251.32C3065.65 3250.12 3059.94 3247.42 3056.81 3245.32C3053.67 3243.22 3046.3 3237.22 3040.42 3232C3034.55 3226.77 3023.33 3215.52 3015.49 3207C3007.66 3198.47 2995.96 3185.42 2989.49 3178C2983.02 3170.57 2970.69 3155.72 2962.08 3145C2953.48 3134.27 2944.33 3122.57 2941.75 3119C2938.26 3114.17 2936.76 3110.95 2935.91 3106.5C2935.06 3102.05 2935.05 3099.4 2935.88 3096.25C2936.5 3093.91 2938.24 3090.58 2939.75 3088.85C2941.26 3087.12 2944.75 3084.43 2947.5 3082.86C2951.23 3080.74 2953.83 3080.02 2957.75 3080.01Z" />
	</g>
</svg>