<svg version="1.2" baseProfile="tiny-ps" xmlns="http://www.w3.org/2000/svg" viewBox="0 0 824 823" width="824" height="823">
	<title>Path 0</title>
	<style>
		tspan { white-space:pre }
		.shp0 { fill: #ffb742 } 
	</style>
	<path id="Path 0" fill-rule="evenodd" class="shp0" d="M500.5 0.44C515.78 0.84 520.46 1.36 531.5 3.89C538.65 5.53 547.87 8.08 552 9.56C556.12 11.04 562.65 13.83 566.5 15.77C570.35 17.7 576.65 21.36 580.49 23.89C584.34 26.43 590.23 31.2 593.58 34.5C596.92 37.8 602.35 44.55 605.64 49.5C608.92 54.45 613.57 62.32 615.96 67C618.36 71.67 621.17 77.97 622.2 81C623.24 84.02 624.93 90.32 625.97 95C627 99.67 628.67 108.45 629.67 114.5C631.12 123.22 631.49 130.78 631.44 151C631.39 175.02 631.22 177.26 628.6 189.5C627.06 196.65 624.25 207.9 622.35 214.5C620.45 221.1 616.82 231.22 614.3 237C611.77 242.77 608.87 248.85 607.85 250.5C606.84 252.15 606.01 253.84 606 254.25C606 254.66 630.64 255.17 660.75 255.37C706.42 255.68 716.74 256.01 723 257.36C727.12 258.25 734.77 260.33 740 261.99C745.52 263.74 753.48 267.34 759 270.59C764.22 273.66 771.42 278.34 775 280.98C778.57 283.63 784.99 289.44 789.25 293.9C793.51 298.35 799.75 306.16 803.1 311.25C806.46 316.34 810.45 322.97 811.98 326C813.5 329.02 815.94 335.1 817.41 339.5C818.87 343.9 820.84 351.1 821.78 355.5C823.02 361.29 823.48 368.06 823.45 380C823.42 391.67 822.89 399.13 821.62 405.5C820.64 410.45 818.47 418.77 816.8 424C815.12 429.22 811.81 437.32 809.44 442C807.06 446.67 803.79 452.52 799.22 459.5L801.31 468.5C803.01 475.85 803.4 480.8 803.4 495.5C803.41 511.45 803.11 514.75 800.8 524.5C799.36 530.55 796.8 539.32 795.11 544C793.42 548.67 790.29 555.42 788.16 559C784.82 564.6 784.39 565.98 785.04 569C785.46 570.92 786.11 576.32 786.47 581C786.83 585.67 786.64 594.22 786.05 600C785.45 605.77 783.57 616.12 781.86 623C780.16 629.87 777.34 638.87 775.59 643C773.85 647.12 770.8 653.42 768.81 657C766.82 660.57 763.2 666.2 756.35 675.5L755.72 688.5C755.35 696.2 754.06 706.4 752.57 713.5C751.18 720.1 748.98 728.65 747.68 732.5C746.38 736.35 743.92 742.42 742.23 746C740.53 749.57 735.85 757.43 731.82 763.45C727.79 769.47 721.12 777.74 717 781.83C712.87 785.92 704.77 792.41 699 796.24C693.22 800.08 684.9 804.92 680.5 807C676.1 809.08 668.67 811.98 664 813.45C659.32 814.91 650.1 817.19 643.5 818.51C636.9 819.83 625.2 821.38 617.5 821.95C609.8 822.52 588.99 822.99 571.25 823C553.51 823 531.24 822.53 521.75 821.96C512.26 821.38 498.2 820.02 490.5 818.93C482.8 817.85 468.62 815.37 459 813.42C449.37 811.48 434.07 808.11 425 805.92C415.92 803.74 399.95 799.27 389.5 795.99C379.05 792.72 355.65 785.05 337.5 778.96C319.35 772.86 298.42 766.12 291 763.98C283.57 761.84 273.45 759.6 268.5 759.01C263.55 758.42 256.8 757.26 253.5 756.44C250.2 755.62 245.02 753.79 236.5 749.79L231 752.81C227.97 754.47 222.57 756.66 219 757.67C212.94 759.38 207.06 759.5 132.5 759.5C59.55 759.5 51.91 759.35 45.75 757.75C42.04 756.79 36.86 754.92 34.25 753.61C31.64 752.29 26.69 749.14 23.25 746.61C19.81 744.07 14.91 739.19 12.36 735.75C9.81 732.31 6.72 727.25 5.49 724.5C4.27 721.75 2.53 716.24 1.63 712.25C0.16 705.71 0 688.92 0.01 539.75C0.03 378.36 0.07 374.3 2.02 366C3.45 359.86 5.36 355.28 8.88 349.5C11.56 345.1 16.21 339.25 19.21 336.5C22.21 333.75 27.56 329.82 31.09 327.76C35 325.48 40.82 323.24 46 322.02C54.1 320.12 58.12 320.03 131.25 320.01C196.4 320 209.17 320.23 215.75 321.54C220.01 322.39 226.2 324.37 235.5 328.82L240.5 325.98C243.25 324.42 249.32 322.08 254 320.8C261.28 318.79 263.42 317.67 268.86 312.98C272.36 309.97 280.49 301.65 286.91 294.5C293.34 287.35 302.21 277.22 306.63 272C311.05 266.77 324.53 250.12 336.57 235C348.61 219.87 362.33 203 367.06 197.5C371.78 192 379.22 183.67 383.58 179C390.63 171.45 392.04 169.27 396.14 159.5C398.68 153.45 401.47 146.02 402.33 143C403.19 139.97 404.61 134.12 405.49 130C406.38 125.87 409.08 112.82 411.51 101C413.93 89.17 417.47 75 419.38 69.5C421.28 64 424.37 56.12 426.23 52C428.1 47.87 432.74 39.77 436.55 34C440.36 28.22 445.95 21.02 448.99 17.99C452.02 14.95 457.42 10.69 461 8.52C464.57 6.34 470.87 3.52 475 2.26C481.96 0.13 483.79 -0.01 500.5 0.44ZM486.17 60.75C483.96 63.36 480.14 69.77 477.66 75C475.19 80.22 472.21 87.42 471.05 91C469.89 94.57 467.79 103.35 466.39 110.5C464.99 117.65 462.06 131.37 459.89 141C457.71 150.62 455.09 161.2 454.06 164.5C453.04 167.8 450.76 174.1 449 178.5C447.24 182.9 444.44 189.2 442.78 192.5C441.12 195.8 437.71 201.42 435.2 205C432.68 208.57 427.42 214.87 423.51 219C419.6 223.12 413.27 230.1 409.44 234.5C405.62 238.9 393.94 253.26 383.5 266.42C373.05 279.57 358.68 297.35 351.58 305.92C344.47 314.49 333.79 326.9 327.85 333.5C321.91 340.1 314 348.26 310.28 351.62C306.55 354.99 301.25 359.46 298.5 361.55C295.75 363.64 291.25 366.6 288.5 368.13C285.75 369.65 279.9 371.84 275.5 372.99C271.1 374.14 266.7 375.85 265.72 376.79C264.02 378.42 263.94 386.32 263.97 539.25L264 700C267.49 702.12 272.32 703.25 277 703.87C281.67 704.49 291.8 706.6 299.5 708.56C307.2 710.52 335.1 719.26 361.5 727.98C387.9 736.7 414 745.19 419.5 746.86C425 748.52 434.22 751 440 752.37C445.77 753.74 457.25 756.27 465.5 757.98C473.75 759.69 486.12 761.94 493 762.97C499.87 764 512.92 765.37 522 766.02C532.56 766.77 553.25 767.03 579.5 766.73C611.04 766.38 622.58 765.9 629.5 764.67C634.45 763.78 641.65 761.98 645.5 760.66C649.35 759.34 655.2 756.96 658.5 755.36C661.8 753.77 667.36 750.22 670.86 747.48C674.35 744.74 679.6 739.57 682.52 736C685.44 732.42 689.06 727.02 690.57 724C692.08 720.97 694.17 716.02 695.21 713C696.26 709.97 697.57 705.47 698.12 703C698.68 700.52 699.45 689.27 699.83 678C700.45 659.84 700.78 656.99 702.71 653C703.91 650.52 707.84 645.12 711.45 641C715.06 636.87 719.31 631.02 720.89 628C722.48 624.97 724.91 619.12 726.28 615C727.66 610.87 729.35 603.67 730.03 599C730.77 593.95 731.01 587.45 730.62 583C730.25 578.87 729.24 572.8 728.37 569.5C727.27 565.32 726.98 561.53 727.42 557C727.79 553.21 728.97 548.84 730.27 546.5C731.48 544.3 733.47 541.15 734.68 539.5C735.89 537.85 738.77 532.45 741.07 527.5C743.38 522.55 745.92 515.35 746.72 511.5C747.71 506.74 748.04 500.66 747.75 492.5C747.42 482.97 746.65 478.03 744.05 468.5C741.38 458.73 740.89 455.43 741.39 450.75C741.72 447.59 742.72 443.31 743.59 441.25C744.46 439.19 747.68 434.35 750.74 430.5C753.8 426.65 757.99 419.9 760.04 415.5C762.1 411.1 764.52 404.8 765.43 401.5C766.34 398.2 767.33 390.32 767.64 384C768.04 375.74 767.78 370.53 766.71 365.5C765.9 361.65 763.5 354.9 761.38 350.5C758.24 343.96 755.71 340.65 747.52 332.39C739.94 324.75 735.79 321.42 730.5 318.75C726.65 316.81 721.02 314.41 718 313.41C712.93 311.73 706.35 311.54 633.5 311.04L554.5 310.5C545.25 305.29 542.31 302.58 539.77 298.9C537.23 295.24 535.68 291.57 534.94 287.5C534.06 282.61 534.16 280.2 535.48 274.5C536.38 270.65 538.46 264.12 540.11 260C541.77 255.87 544.05 250.92 545.2 249C546.34 247.07 548.18 243.92 549.29 242C550.4 240.07 554.24 232.65 557.81 225.5C561.38 218.35 565.99 207.32 568.06 201C570.12 194.67 572.56 186.12 573.47 182C574.49 177.41 575.35 167.52 575.69 156.5C576.05 145.01 575.81 134.7 575.03 128C574.36 122.22 573.21 114.57 572.47 111C571.74 107.42 570.15 101.8 568.93 98.5C567.71 95.2 565.88 91.26 564.86 89.75C563.84 88.24 563 86.77 563 86.5C563 86.22 561.79 84.31 560.31 82.25C558.83 80.19 556.24 76.99 554.56 75.15C552.88 73.31 549.14 70.27 546.25 68.4C543.36 66.53 537.06 63.62 532.25 61.92C527.44 60.23 519.9 58.21 515.5 57.43C511.1 56.64 503.6 56 498.84 56L490.17 56L486.17 60.75ZM55.79 540.08C55.93 692.56 56.02 700.59 57.72 702.22C59.37 703.82 64.76 703.95 132 704.01C200.28 704.06 204.6 703.96 206.22 702.28C207.84 700.61 207.95 690.56 208.01 540C208.06 387.29 207.98 379.42 206.28 377.78C204.63 376.17 199.26 376.05 131.9 376.03C62.88 376 59.21 376.09 57.47 377.83C55.71 379.59 55.65 385.92 55.79 540.08Z" />
</svg>